<svg version="1.1" id="圖層_1" xmlns="http://www.w3.org/2000/svg" x="0" y="0" viewBox="0 0 263.47 29.28" style="enable-background:new 0 0 263.47 29.28" xml:space="preserve"><style>.st0{fill:#006934}</style><path class="st0" d="M257.64 6.31v-4.8h2.37c.48 0 .84.04 1.08.13.25.09.44.24.59.46.15.22.22.46.22.72 0 .34-.12.63-.37.86-.25.23-.63.38-1.14.44.19.08.33.16.43.24.21.17.4.38.58.64l.93 1.31h-.89l-.71-1c-.21-.29-.38-.51-.51-.66-.13-.15-.25-.26-.36-.32-.11-.06-.21-.1-.32-.13-.08-.02-.21-.02-.39-.02h-.82v2.13h-.69zm.71-2.68h1.52c.32 0 .57-.03.76-.09a.79.79 0 0 0 .41-.29.76.76 0 0 0 .14-.43c0-.23-.09-.41-.27-.56-.18-.15-.47-.22-.87-.22h-1.69v1.59z"/><path class="st0" d="M259.56 7.82a3.91 3.91 0 1 1 0-7.82 3.91 3.91 0 1 1 0 7.82m0-7.13c-1.78 0-3.22 1.45-3.22 3.23s1.44 3.22 3.22 3.22c1.78 0 3.22-1.45 3.22-3.22a3.22 3.22 0 0 0-3.22-3.23M52.86 20.94H39.49l.28-3.22h13.37zM60.75 8.2c.46.07.9.11 1.33.11 2.43 0 4.21-1.07 5.32-3.21-1.08 1.16-3.08 1.73-6 1.73-.58 0-1.19-.02-1.83-.07l.83-3.54c2.74.07 4.83-.26 6.25-1C69.07.74 71.54 0 74.07 0c3.19 0 5.85 1.12 7.96 3.36L81 7.72c-.4-.47-.85-.87-1.34-1.22-1.11-.84-2.24-1.27-3.4-1.29-.37-.07-.75-.11-1.15-.11-3.41 0-6.09 2.5-8.05 7.49-.79 2.04-1.1 4.06-.92 6.06.25 2.81 1.18 4.54 2.79 5.21.29.12.74.25 1.35.37 2.71.03 5.19-.81 7.44-2.51l-1.29 5.5c-2.34 1.38-4.73 2.07-7.16 2.07-1.58 0-3.07-.29-4.46-.89-1.93-.83-3.47-2.12-4.63-3.88-1.16-1.75-1.84-3.74-2.03-5.98-.32-3.57.55-7.02 2.6-10.34M84.22 28.06c-2.96-1.13-4.58-3.3-4.86-6.5-.15-1.72.2-3.41 1.06-5.06.91-1.8 2.22-3.23 3.95-4.3 1.73-1.07 3.54-1.61 5.42-1.61 1.09 0 2.13.2 3.11.59 2.96 1.11 4.58 3.26 4.86 6.46.15 1.72-.2 3.41-1.06 5.06-.91 1.8-2.22 3.23-3.95 4.3-1.73 1.07-3.54 1.61-5.42 1.61-1.1 0-2.13-.18-3.11-.55m5.97-13.48c-.7 0-1.45.35-2.24 1.05-.79.7-1.44 1.64-1.94 2.83-.53 1.25-.74 2.45-.64 3.58.14 1.62.79 2.44 1.95 2.44.7 0 1.45-.35 2.24-1.03.79-.69 1.44-1.64 1.96-2.86.51-1.22.72-2.39.62-3.52-.14-1.66-.79-2.49-1.95-2.49M113.05 11.07l-.99 4.76c-.83-.37-1.59-.55-2.29-.55-1.62 0-2.8.9-3.56 2.69l-2.5 10.27h-6.29l4.24-17.43h6.28l-.25 1.11c1.43-.74 2.75-1.11 3.97-1.11.55.01 1.01.09 1.39.26M124.4 28.25l2.75-11.7c.04-.12.05-.25.04-.37-.04-.42-.31-.74-.81-.96-.23-.15-.48-.22-.75-.22-.54 0-1.12.21-1.72.63-.43.3-.86.6-1.28.92-.43.32-.75.68-.95 1.07l-2.56 10.63h-6.27l4.11-17.43h6.27l-.24 1.18c1.63-.79 3.25-1.18 4.87-1.18.58 0 1.09.05 1.52.15 2.57.91 3.95 2.41 4.14 4.51.03.39.02.75-.04 1.06l-2.79 11.7-6.29.01zM140.47 22.41c.3 1.06.81 1.71 1.5 1.96.19.1.43.2.71.3 2.19.02 4.03-.64 5.52-1.99l-1.15 4.98c-1.22.67-2.56 1-4.02 1-1.28 0-2.58-.26-3.9-.78-2.9-1.11-4.48-3.22-4.76-6.35-.15-1.67.19-3.32 1.02-4.95.9-1.77 2.25-3.19 4.04-4.26 1.79-1.07 3.64-1.61 5.56-1.61 1.07 0 2.07.17 3.01.52 2.46.66 3.79 2.14 4 4.43.04.42.02.8-.04 1.14-.29 1.55-1.32 2.91-3.1 4.1-1.78 1.18-3.78 1.77-6 1.77-.81 0-1.61-.09-2.39-.26m.08-3.21c.59.1 1.17.15 1.75.15 1.52 0 2.74-.3 3.66-.89.94-.71 1.38-1.43 1.32-2.14-.03-.39-.25-.78-.65-1.15-.4-.37-.84-.56-1.33-.55-1.07 0-2.1.57-3.09 1.7-.83.93-1.38 1.89-1.66 2.88M167.02 11.07l-.99 4.76c-.83-.37-1.59-.55-2.29-.55-1.62 0-2.81.9-3.56 2.69l-2.5 10.27h-6.28l4.25-17.43h6.28l-.25 1.11c1.43-.74 2.75-1.11 3.96-1.11.53.01 1 .09 1.38.26M183.12 15.73c-1.82-1.01-3.9-1.51-6.25-1.51-.52 0-1.02.13-1.52.41-.49.27-.72.6-.69 1 .04.39.73.86 2.09 1.4 1.89.74 3.16 1.3 3.8 1.7 1.35.86 2.08 1.89 2.19 3.1.19 2.09-.53 3.77-2.15 5.04-1.62 1.27-3.74 1.9-6.35 1.9-.89 0-2.14-.15-3.78-.44-1.79-.29-2.96-.6-3.5-.92l.91-4.1c1.74.79 3.79 1.18 6.13 1.18 2.01 0 2.97-.45 2.89-1.36-.06-.69-.71-1.3-1.96-1.85-1.25-.54-2.49-1.07-3.72-1.59-1.31-.76-2.02-1.72-2.12-2.88-.17-1.9.6-3.48 2.32-4.76 1.63-1.21 3.63-1.81 6-1.81 2.71 0 4.92.45 6.65 1.37l-.94 4.12zM191.24 28.24h-6.27l3.19-13.66h-2.9l.89-3.8h2.9l1.77-7.57h6.26l-1.73 7.57h3.99l-.95 3.8h-3.93zM202.6 28.06c-2.96-1.13-4.58-3.3-4.87-6.5-.15-1.72.2-3.41 1.06-5.06.9-1.8 2.22-3.23 3.95-4.3 1.73-1.07 3.54-1.61 5.42-1.61 1.09 0 2.13.2 3.11.59 2.96 1.11 4.58 3.26 4.86 6.46.15 1.72-.2 3.41-1.06 5.06-.91 1.8-2.22 3.23-3.95 4.3-1.73 1.07-3.54 1.61-5.42 1.61-1.09 0-2.12-.18-3.1-.55m5.97-13.48c-.7 0-1.44.35-2.23 1.05-.79.7-1.44 1.64-1.94 2.83-.53 1.25-.74 2.45-.64 3.58.14 1.62.79 2.44 1.95 2.44.7 0 1.45-.35 2.24-1.03.79-.69 1.44-1.64 1.96-2.86s.72-2.39.62-3.53c-.15-1.65-.8-2.48-1.96-2.48M227.87 28.25l2.75-11.7c.04-.13.05-.25.04-.37-.04-.42-.31-.74-.81-.96-.23-.15-.48-.22-.75-.22-.55 0-1.12.21-1.72.63-.43.3-.86.6-1.29.93-.43.32-.75.68-.95 1.07l-2.55 10.63h-6.27l4.11-17.43h6.28l-.26 1.17c1.63-.79 3.25-1.18 4.87-1.18.58 0 1.08.05 1.52.15 2.57.9 3.96 2.41 4.14 4.51.04.39.02.75-.04 1.06l-2.79 11.7-6.28.01zM243.94 22.41c.31 1.06.81 1.71 1.5 1.96.19.1.43.2.71.29 2.2.02 4.03-.64 5.53-1.99l-1.16 4.98c-1.22.67-2.56 1-4.02 1-1.28 0-2.58-.26-3.9-.78-2.9-1.11-4.48-3.22-4.76-6.35-.15-1.67.19-3.32 1.02-4.95.91-1.77 2.26-3.19 4.05-4.26 1.79-1.07 3.64-1.61 5.56-1.61 1.06 0 2.07.17 3.01.51 2.46.67 3.79 2.14 4 4.43.04.42.03.8-.03 1.14-.29 1.55-1.32 2.92-3.11 4.1-1.78 1.18-3.78 1.77-6 1.77-.83.02-1.63-.07-2.4-.24m.07-3.21c.59.1 1.17.15 1.75.15 1.52 0 2.74-.3 3.66-.89.94-.71 1.38-1.43 1.31-2.14-.04-.39-.25-.78-.65-1.15-.4-.37-.84-.55-1.33-.55-1.06 0-2.09.57-3.09 1.7-.81.93-1.37 1.89-1.65 2.88"/><path d="M29.28 26.65c-.89.43-1.58.64-2.07.64-.77 0-1.33-.16-1.7-.48-.32-.3-.49-.72-.49-1.28l.24-5.17c2.1-2.19 4.41-5.11 6.92-8.74 1.38-1.95 2.07-3.03 2.07-3.25s-.16-.4-.49-.56c-.36-.13-.85-.2-1.46-.2-1.74 0-2.4.58-2.79 1.44-1.58 3.49-1.76 3.9-3.1 5.96 0 0-.44.55-1.02 1.24l.1-1.9c0-2.49-.57-4.2-1.7-5.13-1.3-1.07-2.92-1.6-4.86-1.6-1.62 0-3.24.2-4.86.6-2.91.86-5.26 1.98-7.05 3.37-2.27 1.6-4.13 3.53-5.59 5.77C.49 19.27 0 21.05 0 22.68c0 1.47.4 2.74 1.21 3.81.65.88 1.7 1.58 3.16 2.09 1.13.32 2.51.53 4.13.64 1.9 0 3.85-.37 5.83-1.12 2.25-.86 3.96-1.82 6.45-3.83.24 1.76.83 3.57 2.51 4.46.01.01.02.01.02.02.03.02.06.03.09.05.06.03.12.06.19.09.59.29 1.2.39 2.15.41 1.1.01 2.23-.17 4.01-1.15 1.78-.97 3.16-2.34 4.25-3.89l-1.21-.48c-1.25 1.29-2.42 2.25-3.51 2.87m-19.04-.75c-1.48 0-2.72-.33-3.72-.99-.83-.66-1.24-1.64-1.24-2.93 0-1.32.47-2.74 1.39-4.26.93-1.68 2.12-3.08 3.56-4.19 1.76-1.5 3.24-2.44 4.44-2.83 1.21-.41 2.34-.61 3.41-.61.13 0 .26.02.39.03.1.01.21.03.33.06.02 0 .04.01.06.02.15.04.32.09.49.17.02.01.03.01.05.02.59.27 1.22.77 1.55 1.71.15.47.23 1.02.23 1.67l-.17 2.58c-.16 1.61-.36 3.05-.4 4.58-.27.24-.46.4-.46.4-2.1 1.84-3.98 3.09-5.63 3.75-1.44.54-2.86.82-4.28.82" style="fill:#e10012"/></svg>