<?xml version="1.0" encoding="utf-8"?>
<!-- Generator: Adobe Illustrator 24.3.0, SVG Export Plug-In . SVG Version: 6.00 Build 0)  -->
<svg version="1.1" id="圖層_1" xmlns="http://www.w3.org/2000/svg" xmlns:xlink="http://www.w3.org/1999/xlink" x="0px" y="0px"
	 viewBox="0 0 263.47 29.28" style="enable-background:new 0 0 263.47 29.28;" xml:space="preserve">
<style type="text/css">
	.st0{fill:#006934;}
	.st1{fill:#E10012;}
	.st2{fill:#B50A12;}
	.st3{fill:#1E120D;}
	.st4{fill:#D5B24F;}
	.st5{fill:#0097DB;}
	.st6{fill:#7FC3EB;}
	.st7{fill:#1B6437;}
	.st8{fill:none;stroke:#006934;stroke-width:1.3026;}
	.st9{fill:#68632C;}
	.st10{fill:#837D38;}
	.st11{fill:#B3D958;}
	.st12{fill:#443D80;}
	.st13{fill:#03070D;}
	.st14{fill:#22298A;}
	.st15{fill:#2037B0;}
	.st16{fill:#54A5CB;}
	.st17{fill:#1B5D92;}
	.st18{fill:#1B4B88;}
	.st19{fill:#2B71D0;}
	.st20{fill:#3B88E0;}
	.st21{fill:#22929A;}
	.st22{fill:#68398D;}
	.st23{fill:#C7C7C8;}
	.st24{fill:#F2F0DF;}
	.st25{fill:#7E63A7;}
	.st26{fill:#1D6DC1;}
	.st27{fill:#645885;}
	.st28{fill:#A560C1;}
	.st29{fill:#CC3675;}
	.st30{fill:#43417F;}
	.st31{fill:#C8A5C9;}
	.st32{fill:#845CC1;}
	.st33{fill:#3A798B;}
	.st34{fill:#31B3F3;}
	.st35{fill:#00A7F5;}
	.st36{fill:#76659A;}
	.st37{fill:#7549B0;}
	.st38{fill:#703155;}
	.st39{fill:#8F4B70;}
	.st40{fill:#8B519A;}
	.st41{fill:#A881A9;}
	.st42{fill:#CB8ECA;}
	.st43{fill:#A75BB8;}
	.st44{fill:#93255D;}
	.st45{fill:#6E834A;}
	.st46{fill:#00CAC0;}
	.st47{fill:#EDEDB2;}
	.st48{fill:#4BDDA7;}
	.st49{fill:#EDE8D3;}
	.st50{fill:#D4D0BF;}
	.st51{fill:#90AC95;}
	.st52{fill:#5BD7C0;}
	.st53{fill:#80535A;}
	.st54{fill:#9E8CC0;}
	.st55{fill:#6E8080;}
	.st56{fill:#B49DB5;}
	.st57{fill:#3DBDAB;}
	.st58{fill:#00DAC7;}
	.st59{fill:#B1EE82;}
	.st60{fill:#78B791;}
	.st61{fill:#ECB2EA;}
	.st62{fill:#AAEB26;}
	.st63{fill:#EF71AD;}
	.st64{fill:#E04C8E;}
	.st65{fill:#A91C55;}
	.st66{fill:#7C1847;}
	.st67{fill:#B72662;}
	.st68{fill:#207AD6;}
	.st69{fill:#6B1A37;}
	.st70{fill:#C2BCA3;}
	.st71{fill:#A09CA9;}
	.st72{fill:#705C66;}
	.st73{fill:#AFA2B7;}
	.st74{fill:#19AEE7;}
	.st75{fill:#42C4F6;}
	.st76{fill:#A77FD0;}
	.st77{fill:#7F21AE;}
	.st78{fill:#3A7E9F;}
	.st79{fill:#64E5EC;}
	.st80{fill:#1E121E;}
	.st81{fill:#F5ADB9;}
	.st82{fill:#8A8CB2;}
	.st83{fill:#BEB6C7;}
	.st84{fill:#998495;}
	.st85{fill:#AA87A5;}
	.st86{fill:#DD9BD3;}
	.st87{fill:#20131C;}
	.st88{fill:#DF3C68;}
	.st89{fill:#F9C5DC;}
	.st90{fill:#5C4A5C;}
	.st91{fill:#817BB7;}
	.st92{fill:#F8F394;}
	.st93{fill:#BBB3B3;}
	.st94{fill:#231815;}
	.st95{fill:#EDE9E9;}
	.st96{fill:#FFFFFF;}
	.st97{fill:#89705D;}
	.st98{fill:#6D381A;}
	.st99{fill:#C5B6A6;}
	.st100{fill:#BA6632;}
	.st101{fill:#9A999A;}
	.st102{fill:#CCAC94;}
	.st103{fill:#E1EFF2;}
	.st104{fill:#4D4D63;}
	.st105{fill:#5E5E75;}
	.st106{fill:#4280BA;}
	.st107{fill:#0C1B43;}
	.st108{fill:#1D479B;}
	.st109{fill:#B5D0F5;}
	.st110{fill:#9DC4F0;}
	.st111{fill:#1D55B2;}
	.st112{fill:#3E6CCD;}
	.st113{fill:#F7F7F7;}
	.st114{fill:#F6F5D1;}
	.st115{fill:#EEEFF9;}
	.st116{fill:#F2F0CC;}
	.st117{fill:#F7F5E6;}
	.st118{fill:#214BBB;}
	.st119{fill:#6C6C7D;}
	.st120{fill:#2759AA;}
	.st121{fill:#A38F80;}
	.st122{fill:#958377;}
	.st123{fill:#3773C6;}
	.st124{fill:#221C18;}
	.st125{fill:#A8968C;}
	.st126{fill:#B3A397;}
	.st127{fill:#847566;}
	.st128{fill:#9D8E80;}
	.st129{fill:#594739;}
	.st130{fill:#6B584C;}
	.st131{fill:#519BDE;}
	.st132{fill:#54A6E7;}
	.st133{fill:#8CB6DD;}
	.st134{fill:#DAEDF0;}
	.st135{fill:#32499B;}
	.st136{fill:#E3F3FA;}
	.st137{fill:#90B6F0;}
	.st138{fill:#E3E7F8;}
	.st139{fill:#837769;}
	.st140{fill:#D9E0F7;}
	.st141{fill:#AEB7ED;}
	.st142{fill:#BDC2F1;}
	.st143{fill:#0F62C7;}
	.st144{fill:#004DB1;}
	.st145{fill:#4D59AB;}
	.st146{fill:#113763;}
	.st147{fill:#E2DDF2;}
	.st148{fill:#4788D7;}
	.st149{fill:#3B6BCC;}
	.st150{fill:#A28E76;}
	.st151{fill:#30C1C7;}
	.st152{fill:#008D8C;}
	.st153{fill:#090405;}
	.st154{fill:#645C29;}
	.st155{fill:#D7C09C;}
	.st156{fill:#D2A870;}
	.st157{fill:#D1A678;}
	.st158{fill:#CA925B;}
	.st159{fill:#BABABB;}
	.st160{fill:#8E8E8E;}
	.st161{fill:#D3D3D4;}
	.st162{fill:#CABD9C;}
	.st163{fill:#A4A4A5;}
	.st164{fill:#C8CACB;}
	.st165{fill:#CF5D7F;}
	.st166{fill:#D05456;}
	.st167{fill:#CF889C;}
	.st168{fill:#AF2F39;}
	.st169{fill:#CECFCF;}
	.st170{fill:#D8D39B;}
	.st171{fill:#C9A496;}
	.st172{fill:#CD734D;}
	.st173{fill:#0D091E;}
	.st174{fill:#CAC6C6;}
</style>
<g>
	<path class="st0" d="M257.64,6.31v-4.8h2.37c0.48,0,0.84,0.04,1.08,0.13c0.25,0.09,0.44,0.24,0.59,0.46
		c0.15,0.22,0.22,0.46,0.22,0.72c0,0.34-0.12,0.63-0.37,0.86c-0.25,0.23-0.63,0.38-1.14,0.44c0.19,0.08,0.33,0.16,0.43,0.24
		c0.21,0.17,0.4,0.38,0.58,0.64l0.93,1.31h-0.89l-0.71-1c-0.21-0.29-0.38-0.51-0.51-0.66c-0.13-0.15-0.25-0.26-0.36-0.32
		c-0.11-0.06-0.21-0.1-0.32-0.13c-0.08-0.02-0.21-0.02-0.39-0.02h-0.82v2.13H257.64z M258.35,3.63h1.52c0.32,0,0.57-0.03,0.76-0.09
		c0.18-0.06,0.32-0.16,0.41-0.29c0.09-0.13,0.14-0.28,0.14-0.43c0-0.23-0.09-0.41-0.27-0.56c-0.18-0.15-0.47-0.22-0.87-0.22h-1.69
		V3.63z"/>
	<path class="st0" d="M259.56,7.82c-2.16,0-3.91-1.75-3.91-3.91c0-2.16,1.75-3.91,3.91-3.91c2.16,0,3.91,1.75,3.91,3.91
		C263.47,6.07,261.72,7.82,259.56,7.82 M259.56,0.69c-1.78,0-3.22,1.45-3.22,3.23c0,1.78,1.44,3.22,3.22,3.22
		c1.78,0,3.22-1.45,3.22-3.22C262.78,2.13,261.34,0.69,259.56,0.69"/>
	<polygon class="st0" points="52.86,20.94 39.49,20.94 39.77,17.72 53.14,17.72 	"/>
	<path class="st0" d="M60.75,8.2c0.46,0.07,0.9,0.11,1.33,0.11c2.43,0,4.21-1.07,5.32-3.21c-1.08,1.16-3.08,1.73-6,1.73
		c-0.58,0-1.19-0.02-1.83-0.07l0.83-3.54c2.74,0.07,4.83-0.26,6.25-1C69.07,0.74,71.54,0,74.07,0c3.19,0,5.85,1.12,7.96,3.36
		L81,7.72c-0.4-0.47-0.85-0.87-1.34-1.22c-1.11-0.84-2.24-1.27-3.4-1.29c-0.37-0.07-0.75-0.11-1.15-0.11c-3.41,0-6.09,2.5-8.05,7.49
		c-0.79,2.04-1.1,4.06-0.92,6.06c0.25,2.81,1.18,4.54,2.79,5.21c0.29,0.12,0.74,0.25,1.35,0.37c2.71,0.03,5.19-0.81,7.44-2.51
		l-1.29,5.5c-2.34,1.38-4.73,2.07-7.16,2.07c-1.58,0-3.07-0.29-4.46-0.89c-1.93-0.83-3.47-2.12-4.63-3.88
		c-1.16-1.75-1.84-3.74-2.03-5.98C57.83,14.97,58.7,11.52,60.75,8.2"/>
	<path class="st0" d="M84.22,28.06c-2.96-1.13-4.58-3.3-4.86-6.5c-0.15-1.72,0.2-3.41,1.06-5.06c0.91-1.8,2.22-3.23,3.95-4.3
		c1.73-1.07,3.54-1.61,5.42-1.61c1.09,0,2.13,0.2,3.11,0.59c2.96,1.11,4.58,3.26,4.86,6.46c0.15,1.72-0.2,3.41-1.06,5.06
		c-0.91,1.8-2.22,3.23-3.95,4.3c-1.73,1.07-3.54,1.61-5.42,1.61C86.23,28.61,85.2,28.43,84.22,28.06 M90.19,14.58
		c-0.7,0-1.45,0.35-2.24,1.05c-0.79,0.7-1.44,1.64-1.94,2.83c-0.53,1.25-0.74,2.45-0.64,3.58c0.14,1.62,0.79,2.44,1.95,2.44
		c0.7,0,1.45-0.35,2.24-1.03c0.79-0.69,1.44-1.64,1.96-2.86c0.51-1.22,0.72-2.39,0.62-3.52C92,15.41,91.35,14.58,90.19,14.58"/>
	<path class="st0" d="M113.05,11.07l-0.99,4.76c-0.83-0.37-1.59-0.55-2.29-0.55c-1.62,0-2.8,0.9-3.56,2.69l-2.5,10.27h-6.29
		l4.24-17.43h6.28l-0.25,1.11c1.43-0.74,2.75-1.11,3.97-1.11C112.21,10.82,112.67,10.9,113.05,11.07"/>
	<path class="st0" d="M124.4,28.25l2.75-11.7c0.04-0.12,0.05-0.25,0.04-0.37c-0.04-0.42-0.31-0.74-0.81-0.96
		c-0.23-0.15-0.48-0.22-0.75-0.22c-0.54,0-1.12,0.21-1.72,0.63c-0.43,0.3-0.86,0.6-1.28,0.92c-0.43,0.32-0.75,0.68-0.95,1.07
		l-2.56,10.63h-6.27l4.11-17.43h6.27L122.99,12c1.63-0.79,3.25-1.18,4.87-1.18c0.58,0,1.09,0.05,1.52,0.15
		c2.57,0.91,3.95,2.41,4.14,4.51c0.03,0.39,0.02,0.75-0.04,1.06l-2.79,11.7L124.4,28.25z"/>
	<path class="st0" d="M140.47,22.41c0.3,1.06,0.81,1.71,1.5,1.96c0.19,0.1,0.43,0.2,0.71,0.3c2.19,0.02,4.03-0.64,5.52-1.99
		l-1.15,4.98c-1.22,0.67-2.56,1-4.02,1c-1.28,0-2.58-0.26-3.9-0.78c-2.9-1.11-4.48-3.22-4.76-6.35c-0.15-1.67,0.19-3.32,1.02-4.95
		c0.9-1.77,2.25-3.19,4.04-4.26c1.79-1.07,3.64-1.61,5.56-1.61c1.07,0,2.07,0.17,3.01,0.52c2.46,0.66,3.79,2.14,4,4.43
		c0.04,0.42,0.02,0.8-0.04,1.14c-0.29,1.55-1.32,2.91-3.1,4.1c-1.78,1.18-3.78,1.77-6,1.77C142.05,22.67,141.25,22.58,140.47,22.41
		 M140.55,19.2c0.59,0.1,1.17,0.15,1.75,0.15c1.52,0,2.74-0.3,3.66-0.89c0.94-0.71,1.38-1.43,1.32-2.14
		c-0.03-0.39-0.25-0.78-0.65-1.15c-0.4-0.37-0.84-0.56-1.33-0.55c-1.07,0-2.1,0.57-3.09,1.7C141.38,17.25,140.83,18.21,140.55,19.2"
		/>
	<path class="st0" d="M167.02,11.07l-0.99,4.76c-0.83-0.37-1.59-0.55-2.29-0.55c-1.62,0-2.81,0.9-3.56,2.69l-2.5,10.27h-6.28
		l4.25-17.43h6.28l-0.25,1.11c1.43-0.74,2.75-1.11,3.96-1.11C166.17,10.82,166.64,10.9,167.02,11.07"/>
	<path class="st0" d="M183.12,15.73c-1.82-1.01-3.9-1.51-6.25-1.51c-0.52,0-1.02,0.13-1.52,0.41c-0.49,0.27-0.72,0.6-0.69,1
		c0.04,0.39,0.73,0.86,2.09,1.4c1.89,0.74,3.16,1.3,3.8,1.7c1.35,0.86,2.08,1.89,2.19,3.1c0.19,2.09-0.53,3.77-2.15,5.04
		c-1.62,1.27-3.74,1.9-6.35,1.9c-0.89,0-2.14-0.15-3.78-0.44c-1.79-0.29-2.96-0.6-3.5-0.92l0.91-4.1c1.74,0.79,3.79,1.18,6.13,1.18
		c2.01,0,2.97-0.45,2.89-1.36c-0.06-0.69-0.71-1.3-1.96-1.85c-1.25-0.54-2.49-1.07-3.72-1.59c-1.31-0.76-2.02-1.72-2.12-2.88
		c-0.17-1.9,0.6-3.48,2.32-4.76c1.63-1.21,3.63-1.81,6-1.81c2.71,0,4.92,0.45,6.65,1.37L183.12,15.73z"/>
	<polygon class="st0" points="191.24,28.24 184.97,28.24 188.16,14.58 185.26,14.58 186.15,10.78 189.05,10.78 190.82,3.21 
		197.08,3.21 195.35,10.78 199.34,10.78 198.39,14.58 194.46,14.58 	"/>
	<path class="st0" d="M202.6,28.06c-2.96-1.13-4.58-3.3-4.87-6.5c-0.15-1.72,0.2-3.41,1.06-5.06c0.9-1.8,2.22-3.23,3.95-4.3
		c1.73-1.07,3.54-1.61,5.42-1.61c1.09,0,2.13,0.2,3.11,0.59c2.96,1.11,4.58,3.26,4.86,6.46c0.15,1.72-0.2,3.41-1.06,5.06
		c-0.91,1.8-2.22,3.23-3.95,4.3c-1.73,1.07-3.54,1.61-5.42,1.61C204.61,28.61,203.58,28.43,202.6,28.06 M208.57,14.58
		c-0.7,0-1.44,0.35-2.23,1.05c-0.79,0.7-1.44,1.64-1.94,2.83c-0.53,1.25-0.74,2.45-0.64,3.58c0.14,1.62,0.79,2.44,1.95,2.44
		c0.7,0,1.45-0.35,2.24-1.03c0.79-0.69,1.44-1.64,1.96-2.86c0.52-1.22,0.72-2.39,0.62-3.53C210.38,15.41,209.73,14.58,208.57,14.58"
		/>
	<path class="st0" d="M227.87,28.25l2.75-11.7c0.04-0.13,0.05-0.25,0.04-0.37c-0.04-0.42-0.31-0.74-0.81-0.96
		c-0.23-0.15-0.48-0.22-0.75-0.22c-0.55,0-1.12,0.21-1.72,0.63c-0.43,0.3-0.86,0.6-1.29,0.93c-0.43,0.32-0.75,0.68-0.95,1.07
		l-2.55,10.63h-6.27l4.11-17.43h6.28L226.45,12c1.63-0.79,3.25-1.18,4.87-1.18c0.58,0,1.08,0.05,1.52,0.15
		c2.57,0.9,3.96,2.41,4.14,4.51c0.04,0.39,0.02,0.75-0.04,1.06l-2.79,11.7L227.87,28.25z"/>
	<path class="st0" d="M243.94,22.41c0.31,1.06,0.81,1.71,1.5,1.96c0.19,0.1,0.43,0.2,0.71,0.29c2.2,0.02,4.03-0.64,5.53-1.99
		l-1.16,4.98c-1.22,0.67-2.56,1-4.02,1c-1.28,0-2.58-0.26-3.9-0.78c-2.9-1.11-4.48-3.22-4.76-6.35c-0.15-1.67,0.19-3.32,1.02-4.95
		c0.91-1.77,2.26-3.19,4.05-4.26c1.79-1.07,3.64-1.61,5.56-1.61c1.06,0,2.07,0.17,3.01,0.51c2.46,0.67,3.79,2.14,4,4.43
		c0.04,0.42,0.03,0.8-0.03,1.14c-0.29,1.55-1.32,2.92-3.11,4.1c-1.78,1.18-3.78,1.77-6,1.77C245.51,22.67,244.71,22.58,243.94,22.41
		 M244.01,19.2c0.59,0.1,1.17,0.15,1.75,0.15c1.52,0,2.74-0.3,3.66-0.89c0.94-0.71,1.38-1.43,1.31-2.14
		c-0.04-0.39-0.25-0.78-0.65-1.15c-0.4-0.37-0.84-0.55-1.33-0.55c-1.06,0-2.09,0.57-3.09,1.7C244.85,17.25,244.29,18.21,244.01,19.2
		"/>
	<path class="st1" d="M29.28,26.65c-0.89,0.43-1.58,0.64-2.07,0.64c-0.77,0-1.33-0.16-1.7-0.48c-0.32-0.3-0.49-0.72-0.49-1.28
		l0.24-5.17c2.1-2.19,4.41-5.11,6.92-8.74c1.38-1.95,2.07-3.03,2.07-3.25s-0.16-0.4-0.49-0.56c-0.36-0.13-0.85-0.2-1.46-0.2
		c-1.74,0-2.4,0.58-2.79,1.44c-1.58,3.49-1.76,3.9-3.1,5.96c0,0-0.44,0.55-1.02,1.24l0.1-1.9c0-2.49-0.57-4.2-1.7-5.13
		c-1.3-1.07-2.92-1.6-4.86-1.6c-1.62,0-3.24,0.2-4.86,0.6c-2.91,0.86-5.26,1.98-7.05,3.37c-2.27,1.6-4.13,3.53-5.59,5.77
		C0.49,19.27,0,21.05,0,22.68c0,1.47,0.4,2.74,1.21,3.81c0.65,0.88,1.7,1.58,3.16,2.09c1.13,0.32,2.51,0.53,4.13,0.64
		c1.9,0,3.85-0.37,5.83-1.12c2.25-0.86,3.96-1.82,6.45-3.83c0.24,1.76,0.83,3.57,2.51,4.46c0.01,0.01,0.02,0.01,0.02,0.02
		c0.03,0.02,0.06,0.03,0.09,0.05c0.06,0.03,0.12,0.06,0.19,0.09c0.59,0.29,1.2,0.39,2.15,0.41c1.1,0.01,2.23-0.17,4.01-1.15
		c1.78-0.97,3.16-2.34,4.25-3.89l-1.21-0.48C31.54,25.07,30.37,26.03,29.28,26.65 M10.24,25.9c-1.48,0-2.72-0.33-3.72-0.99
		c-0.83-0.66-1.24-1.64-1.24-2.93c0-1.32,0.47-2.74,1.39-4.26c0.93-1.68,2.12-3.08,3.56-4.19c1.76-1.5,3.24-2.44,4.44-2.83
		c1.21-0.41,2.34-0.61,3.41-0.61c0.13,0,0.26,0.02,0.39,0.03c0.1,0.01,0.21,0.03,0.33,0.06c0.02,0,0.04,0.01,0.06,0.02
		c0.15,0.04,0.32,0.09,0.49,0.17c0.02,0.01,0.03,0.01,0.05,0.02c0.59,0.27,1.22,0.77,1.55,1.71c0.15,0.47,0.23,1.02,0.23,1.67
		l-0.17,2.58c-0.16,1.61-0.36,3.05-0.4,4.58c-0.27,0.24-0.46,0.4-0.46,0.4c-2.1,1.84-3.98,3.09-5.63,3.75
		C13.08,25.62,11.66,25.9,10.24,25.9"/>
</g>
</svg>
