<svg version="1.1" id="圖層_1" xmlns="http://www.w3.org/2000/svg" x="0" y="0" viewBox="0 0 258.26 39.78" style="enable-background:new 0 0 258.26 39.78" xml:space="preserve"><style>.st2{fill:#b50a12}.st3{fill:#1e120d}</style><path class="st2" d="M4.88 10.95c-.06.08-.12.16-.18.23.06-.08.12-.15.18-.23zM.17 21.54l.08-.52c-.03.18-.06.35-.08.52zM2.94 33c.02.03.04.05.06.08l-.37-.52c.1.15.2.3.31.44zM27.58 0c-4.81-.09-9.62 1.23-13.84 3.54h9.94l-.29.83h.49l-2.57 7.41H4.25c.06-.08.12-.16.17-.23-.06.08-.12.16-.17.23-.17.22-.32.45-.48.68-.37.55-.72 1.11-1.04 1.68l17.48.03-.24.71h.55l-2.29 6.7H.16l-.09.75c-.09.88-.1 1.74-.05 2.58h16.43l-.23.66h.6l-2.64 7.53H3.01c.19.25.38.5.59.73 3.08 3.58 7.97 5.84 13.97 5.95 12.15.22 24.24-8.51 27.01-19.49C47.34 9.3 39.73.23 27.58 0z"/><path class="st2" d="m2.73 14.14 17.49.02-17.49-.02zM16.23 25.57l.23-.66-.23.66-2.36 6.75H2.46h11.41zM4.43 11.54l.27-.36-.27.36zM23.39 4.37z"/><path class="st3" d="m21.31 11.78 2.57-7.41h-.49l-2.29 6.58H4.88c-.06.08-.12.16-.18.23l-.27.36c-.06.08-.12.16-.17.23h17.05z"/><path class="st2" d="M.16 21.58c0-.01 0-.03.01-.04l-.01.04zM.28 20.83l-.03.2.03-.2z"/><path class="st3" d="M20.53 14.88h-.55l-2.02 5.95H.28l-.03.2-.08.52v.04h18.08l2.28-6.71z"/><path class="st2" d="M3.01 33.1c0-.01-.01-.01-.01-.02l.01.02zM2.46 32.32c.04.06.08.12.12.17l.05.07c-.06-.07-.11-.16-.17-.24z"/><path class="st3" d="M16.83 25.57h-.6l-2.35 6.75H2.46c.05.08.11.16.17.24l.37.52c0 .01.01.01.01.02h11.18l2.64-7.53z"/><path class="st2" d="M66.59 27.59h10.03v4.49H61.9V8.28h14.55v4.49h-9.86v5.07h9.01v4.42h-9.01zM88.86 17.94h-4.52v9.21c0 .84.16 1.43.49 1.78.33.35.83.53 1.51.54.68.01 1.52-.01 2.52-.05v2.65c-2.58.34-4.48.13-5.68-.63-1.2-.76-1.8-2.19-1.8-4.3v-9.21h-3.37v-2.86h3.37v-3.88l2.96-.88v4.76h4.52v2.87zM93.24 24.94c.29 1.52.99 2.7 2.09 3.54 1.1.84 2.45 1.26 4.06 1.26 2.24 0 3.88-.83 4.9-2.48l2.52 1.43c-1.65 2.56-4.15 3.84-7.48 3.84-2.7 0-4.89-.84-6.58-2.53-1.69-1.69-2.53-3.82-2.53-6.41 0-2.56.83-4.69 2.48-6.39 1.65-1.7 3.8-2.55 6.43-2.55 2.49 0 4.53.88 6.1 2.63 1.57 1.76 2.36 3.87 2.36 6.34 0 .43-.03.87-.1 1.33H93.24zm5.88-7.51c-1.59 0-2.9.45-3.94 1.34-1.04.9-1.69 2.09-1.94 3.59h11.36c-.25-1.61-.88-2.83-1.9-3.67-1.03-.84-2.22-1.26-3.58-1.26M113.61 17.94c.97-2.11 2.74-3.16 5.3-3.16v3.09c-1.45-.07-2.7.32-3.74 1.16-1.04.84-1.56 2.19-1.56 4.05v9.01h-2.96v-17h2.96v2.85zM129.92 14.64c1.99 0 3.59.63 4.79 1.89 1.2 1.26 1.8 2.96 1.8 5.12v10.44h-2.96V21.81c0-1.38-.37-2.45-1.12-3.21-.75-.76-1.78-1.14-3.09-1.14-1.47 0-2.66.46-3.57 1.38-.91.92-1.36 2.33-1.36 4.23v9.01h-2.96v-17h2.96v2.45c1.21-1.93 3.04-2.89 5.51-2.89M154.37 15.08h2.96v17h-2.96v-2.92c-1.47 2.24-3.62 3.37-6.43 3.37-2.38 0-4.41-.87-6.09-2.6-1.68-1.73-2.52-3.85-2.52-6.34 0-2.49.84-4.61 2.52-6.34 1.68-1.73 3.71-2.6 6.09-2.6 2.81 0 4.95 1.12 6.43 3.37v-2.94zm-6.05 14.59c1.72 0 3.16-.58 4.32-1.75 1.16-1.17 1.73-2.61 1.73-4.33 0-1.72-.58-3.17-1.73-4.33-1.16-1.17-2.6-1.75-4.32-1.75-1.7 0-3.13.58-4.28 1.75-1.16 1.17-1.73 2.61-1.73 4.33 0 1.72.58 3.17 1.73 4.33 1.15 1.16 2.58 1.75 4.28 1.75M161.47 7.26h2.96v24.82h-2.96zM179.32 19.62c0 .64.33 1.16 1 1.55.67.39 1.46.72 2.39.99.92.27 1.85.54 2.79.82.93.27 1.73.79 2.37 1.54.65.75.97 1.72.97 2.91 0 1.54-.6 2.78-1.79 3.71-1.19.93-2.71 1.39-4.57 1.39-1.65 0-3.07-.36-4.25-1.09-1.18-.73-2.02-1.69-2.52-2.89l2.55-1.46c.27.82.78 1.46 1.53 1.94s1.64.71 2.69.71c.97 0 1.78-.19 2.41-.56.63-.37.95-.96.95-1.75 0-.66-.33-1.18-.99-1.58-.66-.4-1.45-.73-2.37-1.01-.92-.28-1.85-.56-2.79-.84-.93-.28-1.73-.78-2.39-1.51-.66-.73-.99-1.65-.99-2.79 0-1.47.57-2.69 1.72-3.64 1.14-.95 2.58-1.43 4.3-1.43 1.38 0 2.61.31 3.69.94 1.08.62 1.89 1.49 2.43 2.6l-2.48 1.39c-.61-1.45-1.82-2.18-3.64-2.18-.84 0-1.55.19-2.14.58-.57.4-.87.95-.87 1.66M200.57 17.94h-4.52v9.21c0 .84.16 1.43.49 1.78.33.35.83.53 1.51.54.68.01 1.52-.01 2.52-.05v2.65c-2.58.34-4.48.13-5.68-.63-1.2-.76-1.8-2.19-1.8-4.3v-9.21h-3.37v-2.86h3.37v-3.88l2.96-.88v4.76h4.52v2.87zM217.23 29.94c-1.75 1.72-3.86 2.58-6.36 2.58-2.49 0-4.61-.86-6.34-2.58-1.73-1.72-2.6-3.84-2.6-6.36 0-2.52.87-4.63 2.6-6.36 1.73-1.72 3.85-2.58 6.34-2.58 2.49 0 4.61.86 6.36 2.58 1.75 1.72 2.62 3.84 2.62 6.36 0 2.52-.88 4.64-2.62 6.36m-6.36-.31c1.7 0 3.13-.58 4.28-1.73 1.16-1.16 1.73-2.59 1.73-4.32 0-1.72-.58-3.16-1.73-4.32-1.16-1.16-2.58-1.73-4.28-1.73-1.68 0-3.09.58-4.25 1.73-1.16 1.16-1.73 2.6-1.73 4.32 0 1.72.58 3.16 1.73 4.32 1.16 1.15 2.57 1.73 4.25 1.73M231.47 14.64c1.99 0 3.59.63 4.79 1.89 1.2 1.26 1.8 2.96 1.8 5.12v10.44h-2.96V21.81c0-1.38-.37-2.45-1.12-3.21-.75-.76-1.78-1.14-3.09-1.14-1.47 0-2.66.46-3.57 1.38-.91.92-1.36 2.33-1.36 4.23v9.01H223v-17h2.96v2.45c1.21-1.93 3.04-2.89 5.51-2.89M243.91 24.94c.29 1.52.99 2.7 2.09 3.54 1.1.84 2.45 1.26 4.06 1.26 2.24 0 3.88-.83 4.9-2.48l2.52 1.43c-1.65 2.56-4.15 3.84-7.48 3.84-2.7 0-4.89-.84-6.58-2.53-1.69-1.69-2.53-3.82-2.53-6.41 0-2.56.83-4.69 2.48-6.39 1.65-1.7 3.8-2.55 6.43-2.55 2.49 0 4.53.88 6.1 2.63 1.57 1.76 2.36 3.87 2.36 6.34 0 .43-.03.87-.1 1.33h-14.25zm5.89-7.51c-1.59 0-2.9.45-3.94 1.34-1.04.9-1.69 2.09-1.94 3.59h11.36c-.25-1.61-.88-2.83-1.9-3.67-1.03-.84-2.22-1.26-3.58-1.26"/></svg>