<?xml version="1.0" encoding="utf-8"?>
<!-- Generator: Adobe Illustrator 24.3.0, SVG Export Plug-In . SVG Version: 6.00 Build 0)  -->
<svg version="1.1" id="圖層_1" xmlns="http://www.w3.org/2000/svg" xmlns:xlink="http://www.w3.org/1999/xlink" x="0px" y="0px"
	 viewBox="0 0 258.26 39.78" style="enable-background:new 0 0 258.26 39.78;" xml:space="preserve">
<style type="text/css">
	.st0{fill:#006934;}
	.st1{fill:#E10012;}
	.st2{fill:#B50A12;}
	.st3{fill:#1E120D;}
	.st4{fill:#D5B24F;}
	.st5{fill:#0097DB;}
	.st6{fill:#7FC3EB;}
	.st7{fill:#1B6437;}
	.st8{fill:none;stroke:#006934;stroke-width:1.3026;}
	.st9{fill:#68632C;}
	.st10{fill:#837D38;}
	.st11{fill:#B3D958;}
	.st12{fill:#443D80;}
	.st13{fill:#03070D;}
	.st14{fill:#22298A;}
	.st15{fill:#2037B0;}
	.st16{fill:#54A5CB;}
	.st17{fill:#1B5D92;}
	.st18{fill:#1B4B88;}
	.st19{fill:#2B71D0;}
	.st20{fill:#3B88E0;}
	.st21{fill:#22929A;}
	.st22{fill:#68398D;}
	.st23{fill:#C7C7C8;}
	.st24{fill:#F2F0DF;}
	.st25{fill:#7E63A7;}
	.st26{fill:#1D6DC1;}
	.st27{fill:#645885;}
	.st28{fill:#A560C1;}
	.st29{fill:#CC3675;}
	.st30{fill:#43417F;}
	.st31{fill:#C8A5C9;}
	.st32{fill:#845CC1;}
	.st33{fill:#3A798B;}
	.st34{fill:#31B3F3;}
	.st35{fill:#00A7F5;}
	.st36{fill:#76659A;}
	.st37{fill:#7549B0;}
	.st38{fill:#703155;}
	.st39{fill:#8F4B70;}
	.st40{fill:#8B519A;}
	.st41{fill:#A881A9;}
	.st42{fill:#CB8ECA;}
	.st43{fill:#A75BB8;}
	.st44{fill:#93255D;}
	.st45{fill:#6E834A;}
	.st46{fill:#00CAC0;}
	.st47{fill:#EDEDB2;}
	.st48{fill:#4BDDA7;}
	.st49{fill:#EDE8D3;}
	.st50{fill:#D4D0BF;}
	.st51{fill:#90AC95;}
	.st52{fill:#5BD7C0;}
	.st53{fill:#80535A;}
	.st54{fill:#9E8CC0;}
	.st55{fill:#6E8080;}
	.st56{fill:#B49DB5;}
	.st57{fill:#3DBDAB;}
	.st58{fill:#00DAC7;}
	.st59{fill:#B1EE82;}
	.st60{fill:#78B791;}
	.st61{fill:#ECB2EA;}
	.st62{fill:#AAEB26;}
	.st63{fill:#EF71AD;}
	.st64{fill:#E04C8E;}
	.st65{fill:#A91C55;}
	.st66{fill:#7C1847;}
	.st67{fill:#B72662;}
	.st68{fill:#207AD6;}
	.st69{fill:#6B1A37;}
	.st70{fill:#C2BCA3;}
	.st71{fill:#A09CA9;}
	.st72{fill:#705C66;}
	.st73{fill:#AFA2B7;}
	.st74{fill:#19AEE7;}
	.st75{fill:#42C4F6;}
	.st76{fill:#A77FD0;}
	.st77{fill:#7F21AE;}
	.st78{fill:#3A7E9F;}
	.st79{fill:#64E5EC;}
	.st80{fill:#1E121E;}
	.st81{fill:#F5ADB9;}
	.st82{fill:#8A8CB2;}
	.st83{fill:#BEB6C7;}
	.st84{fill:#998495;}
	.st85{fill:#AA87A5;}
	.st86{fill:#DD9BD3;}
	.st87{fill:#20131C;}
	.st88{fill:#DF3C68;}
	.st89{fill:#F9C5DC;}
	.st90{fill:#5C4A5C;}
	.st91{fill:#817BB7;}
	.st92{fill:#F8F394;}
	.st93{fill:#BBB3B3;}
	.st94{fill:#231815;}
	.st95{fill:#EDE9E9;}
	.st96{fill:#FFFFFF;}
	.st97{fill:#89705D;}
	.st98{fill:#6D381A;}
	.st99{fill:#C5B6A6;}
	.st100{fill:#BA6632;}
	.st101{fill:#9A999A;}
	.st102{fill:#CCAC94;}
	.st103{fill:#E1EFF2;}
	.st104{fill:#4D4D63;}
	.st105{fill:#5E5E75;}
	.st106{fill:#4280BA;}
	.st107{fill:#0C1B43;}
	.st108{fill:#1D479B;}
	.st109{fill:#B5D0F5;}
	.st110{fill:#9DC4F0;}
	.st111{fill:#1D55B2;}
	.st112{fill:#3E6CCD;}
	.st113{fill:#F7F7F7;}
	.st114{fill:#F6F5D1;}
	.st115{fill:#EEEFF9;}
	.st116{fill:#F2F0CC;}
	.st117{fill:#F7F5E6;}
	.st118{fill:#214BBB;}
	.st119{fill:#6C6C7D;}
	.st120{fill:#2759AA;}
	.st121{fill:#A38F80;}
	.st122{fill:#958377;}
	.st123{fill:#3773C6;}
	.st124{fill:#221C18;}
	.st125{fill:#A8968C;}
	.st126{fill:#B3A397;}
	.st127{fill:#847566;}
	.st128{fill:#9D8E80;}
	.st129{fill:#594739;}
	.st130{fill:#6B584C;}
	.st131{fill:#519BDE;}
	.st132{fill:#54A6E7;}
	.st133{fill:#8CB6DD;}
	.st134{fill:#DAEDF0;}
	.st135{fill:#32499B;}
	.st136{fill:#E3F3FA;}
	.st137{fill:#90B6F0;}
	.st138{fill:#E3E7F8;}
	.st139{fill:#837769;}
	.st140{fill:#D9E0F7;}
	.st141{fill:#AEB7ED;}
	.st142{fill:#BDC2F1;}
	.st143{fill:#0F62C7;}
	.st144{fill:#004DB1;}
	.st145{fill:#4D59AB;}
	.st146{fill:#113763;}
	.st147{fill:#E2DDF2;}
	.st148{fill:#4788D7;}
	.st149{fill:#3B6BCC;}
	.st150{fill:#A28E76;}
	.st151{fill:#30C1C7;}
	.st152{fill:#008D8C;}
	.st153{fill:#090405;}
	.st154{fill:#645C29;}
	.st155{fill:#D7C09C;}
	.st156{fill:#D2A870;}
	.st157{fill:#D1A678;}
	.st158{fill:#CA925B;}
	.st159{fill:#BABABB;}
	.st160{fill:#8E8E8E;}
	.st161{fill:#D3D3D4;}
	.st162{fill:#CABD9C;}
	.st163{fill:#A4A4A5;}
	.st164{fill:#C8CACB;}
	.st165{fill:#CF5D7F;}
	.st166{fill:#D05456;}
	.st167{fill:#CF889C;}
	.st168{fill:#AF2F39;}
	.st169{fill:#CECFCF;}
	.st170{fill:#D8D39B;}
	.st171{fill:#C9A496;}
	.st172{fill:#CD734D;}
	.st173{fill:#0D091E;}
	.st174{fill:#CAC6C6;}
</style>
<g>
	<g>
		<path class="st2" d="M4.88,10.95c-0.06,0.08-0.12,0.16-0.18,0.23C4.76,11.1,4.82,11.03,4.88,10.95L4.88,10.95z"/>
		<path class="st2" d="M0.17,21.54C0.17,21.54,0.17,21.54,0.17,21.54l0.08-0.52C0.22,21.2,0.19,21.37,0.17,21.54z"/>
		<path class="st2" d="M2.94,33c0.02,0.03,0.04,0.05,0.06,0.08l-0.37-0.52C2.73,32.71,2.83,32.86,2.94,33z"/>
		<path class="st2" d="M27.58,0c-4.81-0.09-9.62,1.23-13.84,3.54h9.94l-0.29,0.83h0.49l-2.57,7.41H4.25
			c0.06-0.08,0.12-0.16,0.17-0.23c-0.06,0.08-0.12,0.16-0.17,0.23C4.08,12,3.93,12.23,3.77,12.46c-0.37,0.55-0.72,1.11-1.04,1.68
			l17.48,0.03l-0.24,0.71l0,0h0.55l-2.29,6.7H0.16c-0.03,0.25-0.06,0.5-0.09,0.75c-0.09,0.88-0.1,1.74-0.05,2.58h16.43l0,0h0
			l-0.23,0.66l0,0h0.6l-2.64,7.53H3.01c0.19,0.25,0.38,0.5,0.59,0.73c3.08,3.58,7.97,5.84,13.97,5.95
			C29.72,40,41.81,31.27,44.58,20.29C47.34,9.3,39.73,0.23,27.58,0z"/>
		<polygon class="st2" points="2.73,14.14 20.22,14.16 2.73,14.14 2.73,14.14 		"/>
		<polygon class="st2" points="16.23,25.57 16.46,24.91 16.46,24.91 16.23,25.57 13.87,32.32 2.46,32.32 2.46,32.32 13.87,32.32 		
			"/>
		<path class="st2" d="M4.43,11.54c0.09-0.12,0.18-0.24,0.27-0.36C4.61,11.3,4.52,11.42,4.43,11.54z"/>
		<polygon class="st2" points="23.39,4.37 23.39,4.37 23.39,4.37 		"/>
		<path class="st3" d="M21.31,11.78l2.57-7.41h-0.49l0,0l-2.29,6.58H4.88c-0.06,0.08-0.12,0.16-0.18,0.23
			c-0.09,0.12-0.18,0.24-0.27,0.36c-0.06,0.08-0.12,0.16-0.17,0.23H21.31z"/>
		<path class="st2" d="M0.16,21.58L0.16,21.58c0-0.01,0-0.03,0.01-0.04L0.16,21.58z"/>
		<path class="st2" d="M0.28,20.83l-0.03,0.2C0.26,20.96,0.27,20.89,0.28,20.83L0.28,20.83z"/>
		<path class="st3" d="M20.53,14.88h-0.55l0,0l-2.02,5.95H0.28h0c-0.01,0.07-0.02,0.13-0.03,0.2l-0.08,0.52c0,0.01,0,0.03,0,0.04
			h18.08L20.53,14.88z"/>
		<path class="st2" d="M3.01,33.1L3.01,33.1c0-0.01-0.01-0.01-0.01-0.02L3.01,33.1z"/>
		<path class="st2" d="M2.46,32.32c0.04,0.06,0.08,0.12,0.12,0.17l0.05,0.07C2.57,32.49,2.52,32.4,2.46,32.32L2.46,32.32z"/>
		<path class="st3" d="M16.83,25.57h-0.6l0,0l-2.35,6.75H2.46c0.05,0.08,0.11,0.16,0.17,0.24L3,33.08c0,0.01,0.01,0.01,0.01,0.02
			h11.18L16.83,25.57z"/>
	</g>
	<g>
		<g>
			<polygon class="st2" points="66.59,27.59 76.62,27.59 76.62,32.08 61.9,32.08 61.9,8.28 76.45,8.28 76.45,12.77 66.59,12.77 
				66.59,17.84 75.6,17.84 75.6,22.26 66.59,22.26 			"/>
			<path class="st2" d="M88.86,17.94h-4.52v9.21c0,0.84,0.16,1.43,0.49,1.78c0.33,0.35,0.83,0.53,1.51,0.54
				c0.68,0.01,1.52-0.01,2.52-0.05v2.65c-2.58,0.34-4.48,0.13-5.68-0.63c-1.2-0.76-1.8-2.19-1.8-4.3v-9.21h-3.37v-2.86h3.37v-3.88
				l2.96-0.88v4.76h4.52V17.94z"/>
			<path class="st2" d="M93.24,24.94c0.29,1.52,0.99,2.7,2.09,3.54c1.1,0.84,2.45,1.26,4.06,1.26c2.24,0,3.88-0.83,4.9-2.48
				l2.52,1.43c-1.65,2.56-4.15,3.84-7.48,3.84c-2.7,0-4.89-0.84-6.58-2.53c-1.69-1.69-2.53-3.82-2.53-6.41
				c0-2.56,0.83-4.69,2.48-6.39c1.65-1.7,3.8-2.55,6.43-2.55c2.49,0,4.53,0.88,6.1,2.63c1.57,1.76,2.36,3.87,2.36,6.34
				c0,0.43-0.03,0.87-0.1,1.33H93.24z M99.12,17.43c-1.59,0-2.9,0.45-3.94,1.34c-1.04,0.9-1.69,2.09-1.94,3.59h11.36
				c-0.25-1.61-0.88-2.83-1.9-3.67C101.67,17.85,100.48,17.43,99.12,17.43"/>
			<path class="st2" d="M113.61,17.94c0.97-2.11,2.74-3.16,5.3-3.16v3.09c-1.45-0.07-2.7,0.32-3.74,1.16
				c-1.04,0.84-1.56,2.19-1.56,4.05v9.01h-2.96v-17h2.96V17.94z"/>
			<path class="st2" d="M129.92,14.64c1.99,0,3.59,0.63,4.79,1.89c1.2,1.26,1.8,2.96,1.8,5.12v10.44h-2.96V21.81
				c0-1.38-0.37-2.45-1.12-3.21c-0.75-0.76-1.78-1.14-3.09-1.14c-1.47,0-2.66,0.46-3.57,1.38c-0.91,0.92-1.36,2.33-1.36,4.23v9.01
				h-2.96v-17h2.96v2.45C125.62,15.6,127.45,14.64,129.92,14.64"/>
			<path class="st2" d="M154.37,15.08h2.96v17h-2.96v-2.92c-1.47,2.24-3.62,3.37-6.43,3.37c-2.38,0-4.41-0.87-6.09-2.6
				c-1.68-1.73-2.52-3.85-2.52-6.34c0-2.49,0.84-4.61,2.52-6.34c1.68-1.73,3.71-2.6,6.09-2.6c2.81,0,4.95,1.12,6.43,3.37V15.08z
				 M148.32,29.67c1.72,0,3.16-0.58,4.32-1.75c1.16-1.17,1.73-2.61,1.73-4.33c0-1.72-0.58-3.17-1.73-4.33
				c-1.16-1.17-2.6-1.75-4.32-1.75c-1.7,0-3.13,0.58-4.28,1.75c-1.16,1.17-1.73,2.61-1.73,4.33c0,1.72,0.58,3.17,1.73,4.33
				C145.19,29.08,146.62,29.67,148.32,29.67"/>
			<rect x="161.47" y="7.26" class="st2" width="2.96" height="24.82"/>
			<path class="st2" d="M179.32,19.62c0,0.64,0.33,1.16,1,1.55c0.67,0.39,1.46,0.72,2.39,0.99c0.92,0.27,1.85,0.54,2.79,0.82
				c0.93,0.27,1.73,0.79,2.37,1.54c0.65,0.75,0.97,1.72,0.97,2.91c0,1.54-0.6,2.78-1.79,3.71c-1.19,0.93-2.71,1.39-4.57,1.39
				c-1.65,0-3.07-0.36-4.25-1.09c-1.18-0.73-2.02-1.69-2.52-2.89l2.55-1.46c0.27,0.82,0.78,1.46,1.53,1.94
				c0.75,0.48,1.64,0.71,2.69,0.71c0.97,0,1.78-0.19,2.41-0.56c0.63-0.37,0.95-0.96,0.95-1.75c0-0.66-0.33-1.18-0.99-1.58
				c-0.66-0.4-1.45-0.73-2.37-1.01c-0.92-0.28-1.85-0.56-2.79-0.84c-0.93-0.28-1.73-0.78-2.39-1.51c-0.66-0.73-0.99-1.65-0.99-2.79
				c0-1.47,0.57-2.69,1.72-3.64c1.14-0.95,2.58-1.43,4.3-1.43c1.38,0,2.61,0.31,3.69,0.94c1.08,0.62,1.89,1.49,2.43,2.6l-2.48,1.39
				c-0.61-1.45-1.82-2.18-3.64-2.18c-0.84,0-1.55,0.19-2.14,0.58C179.62,18.36,179.32,18.91,179.32,19.62"/>
			<path class="st2" d="M200.57,17.94h-4.52v9.21c0,0.84,0.16,1.43,0.49,1.78c0.33,0.35,0.83,0.53,1.51,0.54
				c0.68,0.01,1.52-0.01,2.52-0.05v2.65c-2.58,0.34-4.48,0.13-5.68-0.63c-1.2-0.76-1.8-2.19-1.8-4.3v-9.21h-3.37v-2.86h3.37v-3.88
				l2.96-0.88v4.76h4.52V17.94z"/>
			<path class="st2" d="M217.23,29.94c-1.75,1.72-3.86,2.58-6.36,2.58c-2.49,0-4.61-0.86-6.34-2.58c-1.73-1.72-2.6-3.84-2.6-6.36
				c0-2.52,0.87-4.63,2.6-6.36c1.73-1.72,3.85-2.58,6.34-2.58c2.49,0,4.61,0.86,6.36,2.58c1.75,1.72,2.62,3.84,2.62,6.36
				C219.85,26.1,218.97,28.22,217.23,29.94 M210.87,29.63c1.7,0,3.13-0.58,4.28-1.73c1.16-1.16,1.73-2.59,1.73-4.32
				c0-1.72-0.58-3.16-1.73-4.32c-1.16-1.16-2.58-1.73-4.28-1.73c-1.68,0-3.09,0.58-4.25,1.73c-1.16,1.16-1.73,2.6-1.73,4.32
				c0,1.72,0.58,3.16,1.73,4.32C207.78,29.05,209.19,29.63,210.87,29.63"/>
			<path class="st2" d="M231.47,14.64c1.99,0,3.59,0.63,4.79,1.89c1.2,1.26,1.8,2.96,1.8,5.12v10.44h-2.96V21.81
				c0-1.38-0.37-2.45-1.12-3.21c-0.75-0.76-1.78-1.14-3.09-1.14c-1.47,0-2.66,0.46-3.57,1.38c-0.91,0.92-1.36,2.33-1.36,4.23v9.01
				h-2.96v-17h2.96v2.45C227.17,15.6,229,14.64,231.47,14.64"/>
			<path class="st2" d="M243.91,24.94c0.29,1.52,0.99,2.7,2.09,3.54c1.1,0.84,2.45,1.26,4.06,1.26c2.24,0,3.88-0.83,4.9-2.48
				l2.52,1.43c-1.65,2.56-4.15,3.84-7.48,3.84c-2.7,0-4.89-0.84-6.58-2.53c-1.69-1.69-2.53-3.82-2.53-6.41
				c0-2.56,0.83-4.69,2.48-6.39c1.65-1.7,3.8-2.55,6.43-2.55c2.49,0,4.53,0.88,6.1,2.63c1.57,1.76,2.36,3.87,2.36,6.34
				c0,0.43-0.03,0.87-0.1,1.33H243.91z M249.8,17.43c-1.59,0-2.9,0.45-3.94,1.34c-1.04,0.9-1.69,2.09-1.94,3.59h11.36
				c-0.25-1.61-0.88-2.83-1.9-3.67C252.35,17.85,251.16,17.43,249.8,17.43"/>
		</g>
	</g>
</g>
</svg>
