<?xml version="1.0" encoding="utf-8"?>
<!-- Generator: Adobe Illustrator 24.3.0, SVG Export Plug-In . SVG Version: 6.00 Build 0)  -->
<svg version="1.1" id="圖層_1" xmlns="http://www.w3.org/2000/svg" xmlns:xlink="http://www.w3.org/1999/xlink" x="0px" y="0px"
	 viewBox="0 0 96.9 74" style="enable-background:new 0 0 96.9 74;" xml:space="preserve">
<style type="text/css">
	.st0{fill:url(#SVGID_1_);}
	.st1{fill:url(#SVGID_2_);}
	.st2{fill:url(#SVGID_3_);}
	.st3{fill:none;stroke:#122B88;stroke-width:1.3026;}
	.st4{fill:#122B88;}
</style>
<linearGradient id="SVGID_1_" gradientUnits="userSpaceOnUse" x1="-8.829" y1="4.4405" x2="82.9971" y2="50.3536">
	<stop  offset="0" style="stop-color:#B6BDDA"/>
	<stop  offset="0.3297" style="stop-color:#7684BA"/>
	<stop  offset="0.6413" style="stop-color:#40549F"/>
	<stop  offset="0.8734" style="stop-color:#1F368E"/>
	<stop  offset="1" style="stop-color:#122B88"/>
</linearGradient>
<path class="st0" d="M11.7,11.1h38.8c0,0-8,7.3-8.5,8.5c-0.5,1.2-0.8,1.5-0.3,1.9c0.5,0.4,2.6,0.5,5.8-2.1c3.2-2.5,5.3-4.9,6.6-5.9
	c0,0,0,0,0,0c1.3-0.9,2.9-0.9,3.8-1.2c0,0,0,0,0,0c0.6-0.2,1.3-0.7,1.4-0.9l0.3-0.3h0.1l11,0c0,0-12.2,11.2-16.9,16
	S43.4,38.6,37.9,40c-5.5,1.3-12.5,2-15.4,3c-2.9,1-10.9,4.9-10.9,4.9v-9c0,0,3.1-2.4,8.1-5c2.4-1.3,7.1-2,7.1-2l0.2,0
	c6.1,0.4,6.6-1,6.2-2.3c0,0,0,0,0-0.1c-0.8-1.9-6.2-0.9-10.4,0.1c-1.4,0.4-2.9,0.4-3.8,0.7c-3.8,1.2-7.5,2.1-7.5,2.1
	S11.7,11.1,11.7,11.1z"/>
<linearGradient id="SVGID_2_" gradientUnits="userSpaceOnUse" x1="-4.4379" y1="-4.3415" x2="87.3881" y2="41.5715">
	<stop  offset="0" style="stop-color:#B6BDDA"/>
	<stop  offset="0.3297" style="stop-color:#7684BA"/>
	<stop  offset="0.6413" style="stop-color:#40549F"/>
	<stop  offset="0.8734" style="stop-color:#1F368E"/>
	<stop  offset="1" style="stop-color:#122B88"/>
</linearGradient>
<path class="st1" d="M24,48.6h23.5c0,0,1.2-0.7,3.2-2.1s1.8-1.5,3.5-2.4s3.3-0.2,3.6,0.1c0.3,0.3,0.3,1.5-0.2,2.3
	c-0.6,0.8-1.8,2.2-1.8,2.2l25.1,0V30.6c0,0-2.5,0.1-7.7,3.1s-6,4.1-8.2,4.4c-2.1,0.4-1.8,0.2-1.8,0.2s-0.1-1.5,0.8-2.2
	c0.9-0.7,7.3-4.4,8.7-5.7c1.4-1.3,3.6-1.4,5.3-2.4c1.7-1,2.9-2,2.9-2V12.8c0,0-7.3,2.3-12.2,6.3c-4.9,4-9,8-11.4,11.1
	c-2.4,3.1-10,9.6-13.4,11.5c-3.4,1.9-12.6,4.2-15.5,4.8C25.6,47.1,24,48.6,24,48.6z M50.5,11.1H60c0,0,0.4-0.6,3.2-2.4
	s4-5.9,2.9-5.8c-1.1,0.1-5.8,1-8.6,2.6C54.7,7,50.5,11.1,50.5,11.1z M71.2,11.1H81v1.6c0,0,3-0.3,5.6-1.4c2.6-1.1,3.7-2.7,4.1-3.9
	c0.4-1.2,0.6-2.8-0.1-3.1s-2.7,0.9-6.9,1.8c-4.2,0.9-4.7,0.6-7.7,2L71.2,11.1z M81,26v4.6c0,0,4.7,0.3,6.7-1.3
	c2-1.7,2.5-4.8,2.3-4.9c-0.2-0.1-0.3-0.6-3-0.1s-1.4,0.6-2.9,1.1C82.5,26,81,26,81,26z"/>
<linearGradient id="SVGID_3_" gradientUnits="userSpaceOnUse" x1="-19.6827" y1="26.1481" x2="72.1433" y2="72.0611">
	<stop  offset="0" style="stop-color:#B6BDDA"/>
	<stop  offset="0.3297" style="stop-color:#7684BA"/>
	<stop  offset="0.6413" style="stop-color:#40549F"/>
	<stop  offset="0.8734" style="stop-color:#1F368E"/>
	<stop  offset="1" style="stop-color:#122B88"/>
</linearGradient>
<path class="st2" d="M47.5,48.6l8.3,0c0,0-2.1,3.1-5.5,5.3c-3.5,2.2-4.3,2-7.6,3.1c-3.3,1.1-3.6,1.7-5.8,2.1c-2.1,0.5-4.9-0.5-5-2.1
	c-0.1-1.6,0.7-3,2.5-3.8c1.8-0.8,3.2-1.1,6.5-2C44.6,49.7,47.5,48.6,47.5,48.6z M11.7,47.8v0.8h12.3c0,0-3.8,2.2-6.3,3.3
	c-2.6,1.1-1.7,0.4-2.9,1.4c-1.2,1-2.6,2.1-4.3,2.2c-1.7,0.1-3.9-0.4-3.8-2.5c0-2.1,0.5-2.5,1.7-3.5C9.4,48.7,11.7,47.9,11.7,47.8z
	 M11.5,32.5c0.1,0,0.1,0,0.1,0l0,6.3c0,0-1.7,0.9-3,1.1s-3.7-1-4-1.3c-0.4-0.3-1.5-0.8-0.1-2.1s2.1-1.9,3.4-2.7
	C9.1,33.1,11.1,32.6,11.5,32.5z"/>
<path class="st3" d="M0.6,0.6h95.6v72.7H0.6V0.6z"/>
<path class="st4" d="M5.4,69.3v-8h1.1v7.1h4.2v0.9H5.4z M12.3,69.3v-8h1.1v8H12.3z M17.8,69.3l-3.3-8h1.2l2.2,5.9
	c0.2,0.5,0.3,0.9,0.5,1.3c0.1-0.4,0.3-0.9,0.5-1.3l2.3-5.8h1.1l-3.3,8.1C18.9,69.3,17.8,69.3,17.8,69.3z M23.5,69.3v-8h1.1v8H23.5z
	 M26.5,69.3v-8h1.1l4.4,6.3v-6.3h1.1v8.1h-1.2L27.6,63v6.3C27.6,69.3,26.5,69.3,26.5,69.3z M39.1,66.1v-0.9h3.6v3
	c-0.5,0.4-1.1,0.7-1.7,0.9c-0.6,0.2-1.2,0.3-1.8,0.3c-0.8,0-1.6-0.2-2.3-0.5c-0.7-0.3-1.2-0.8-1.5-1.5c-0.3-0.6-0.5-1.3-0.5-2.2
	c0-0.8,0.2-1.5,0.5-2.2c0.3-0.7,0.8-1.2,1.5-1.5c0.7-0.3,1.4-0.5,2.2-0.5c0.6,0,1.2,0.1,1.7,0.3c0.5,0.2,0.9,0.5,1.2,0.8
	c0.3,0.3,0.5,0.8,0.6,1.3l-1,0.3c-0.1-0.4-0.3-0.7-0.5-1c-0.2-0.2-0.5-0.4-0.8-0.6c-0.3-0.1-0.7-0.2-1.2-0.2c-0.5,0-1,0.1-1.3,0.2
	c-0.4,0.2-0.7,0.3-0.9,0.6c-0.2,0.2-0.4,0.5-0.5,0.8c-0.2,0.5-0.3,1-0.3,1.6c0,0.7,0.1,1.3,0.4,1.8c0.3,0.5,0.6,0.8,1.1,1.1
	c0.5,0.2,1,0.3,1.6,0.3c0.5,0,1-0.1,1.4-0.3c0.5-0.2,0.8-0.4,1-0.6v-1.5L39.1,66.1L39.1,66.1z M47.2,66.7l1-0.1c0,0.4,0.2,0.7,0.3,1
	c0.2,0.3,0.5,0.5,0.8,0.6c0.4,0.2,0.8,0.2,1.3,0.2c0.4,0,0.8-0.1,1.1-0.2c0.3-0.1,0.6-0.3,0.7-0.5c0.2-0.2,0.2-0.4,0.2-0.7
	s-0.1-0.5-0.2-0.7c-0.2-0.2-0.4-0.3-0.8-0.5c-0.2-0.1-0.7-0.2-1.5-0.4c-0.8-0.2-1.3-0.3-1.6-0.5c-0.4-0.2-0.7-0.4-0.9-0.8
	s-0.3-0.6-0.3-1c0-0.4,0.1-0.8,0.4-1.1c0.2-0.4,0.6-0.6,1.1-0.8c0.5-0.2,1-0.3,1.5-0.3c0.6,0,1.2,0.1,1.7,0.3
	c0.5,0.2,0.8,0.5,1.1,0.8c0.3,0.4,0.4,0.8,0.4,1.3l-1.1,0.1c-0.1-0.5-0.3-0.9-0.6-1.2c-0.3-0.3-0.8-0.4-1.5-0.4
	c-0.7,0-1.2,0.1-1.5,0.4c-0.3,0.2-0.5,0.5-0.5,0.8c0,0.3,0.1,0.5,0.3,0.7c0.2,0.2,0.8,0.4,1.7,0.6s1.5,0.4,1.9,0.5
	c0.5,0.2,0.9,0.5,1.1,0.8s0.3,0.7,0.3,1.1c0,0.4-0.1,0.8-0.4,1.2s-0.6,0.7-1.1,0.9c-0.5,0.2-1,0.3-1.6,0.3c-0.8,0-1.4-0.1-1.9-0.3
	c-0.5-0.2-0.9-0.5-1.2-0.9C47.4,67.7,47.2,67.3,47.2,66.7z M55.5,69.3v-8h3.2c0.6,0,1,0,1.3,0.1c0.4,0.1,0.8,0.2,1,0.4
	c0.3,0.2,0.5,0.5,0.7,0.8c0.2,0.3,0.3,0.7,0.3,1.1c0,0.7-0.2,1.3-0.7,1.7C60.8,65.8,60,66,58.8,66h-2.2v3.3
	C56.6,69.3,55.5,69.3,55.5,69.3z M56.6,65.1h2.2c0.7,0,1.2-0.1,1.5-0.4c0.3-0.3,0.5-0.6,0.5-1.1c0-0.3-0.1-0.6-0.3-0.9
	s-0.4-0.4-0.7-0.5c-0.2,0-0.5-0.1-1-0.1h-2.2V65.1z M63.4,69.3v-8h3.8c0.8,0,1.3,0.1,1.7,0.2s0.7,0.4,0.9,0.8
	c0.2,0.4,0.3,0.8,0.3,1.2c0,0.6-0.2,1-0.6,1.4c-0.4,0.4-1,0.6-1.8,0.8c0.3,0.1,0.5,0.3,0.7,0.4c0.3,0.3,0.6,0.7,0.9,1.1l1.5,2.2
	h-1.4l-1.1-1.7c-0.3-0.5-0.6-0.8-0.8-1.1S67.1,66.1,67,66c-0.2-0.1-0.3-0.2-0.5-0.2c-0.1,0-0.3,0-0.6,0h-1.3v3.6H63.4z M64.5,64.8
	h2.4c0.5,0,0.9-0.1,1.2-0.2c0.3-0.1,0.5-0.3,0.7-0.5c0.2-0.2,0.2-0.5,0.2-0.7c0-0.4-0.1-0.7-0.4-0.9c-0.3-0.3-0.8-0.4-1.4-0.4h-2.7
	L64.5,64.8L64.5,64.8z M72.1,69.3v-8h1.1v8H72.1z M75.2,69.3v-8h1.2l4.4,6.3v-6.3h1.1v8.1h-1.2L76.3,63v6.3H75.2z M87.7,66.1v-0.9
	h3.6v3c-0.6,0.4-1.1,0.7-1.7,0.9c-0.6,0.2-1.2,0.3-1.8,0.3c-0.8,0-1.6-0.2-2.3-0.5c-0.7-0.3-1.2-0.8-1.5-1.5
	c-0.3-0.6-0.5-1.3-0.5-2.2c0-0.8,0.2-1.5,0.5-2.2c0.3-0.7,0.8-1.2,1.5-1.5c0.7-0.3,1.4-0.5,2.2-0.5c0.6,0,1.2,0.1,1.7,0.3
	c0.5,0.2,0.9,0.5,1.2,0.8c0.3,0.3,0.5,0.8,0.6,1.3l-1,0.3c-0.1-0.4-0.3-0.7-0.5-1s-0.5-0.4-0.8-0.6c-0.3-0.1-0.7-0.2-1.2-0.2
	c-0.5,0-0.9,0.1-1.3,0.2c-0.4,0.2-0.7,0.3-0.9,0.6s-0.4,0.5-0.5,0.8c-0.2,0.5-0.3,1-0.3,1.6c0,0.7,0.1,1.3,0.4,1.8
	c0.3,0.5,0.6,0.8,1.1,1.1c0.5,0.2,1,0.3,1.6,0.3c0.9,0,1.8-0.3,2.5-0.8v-1.5L87.7,66.1L87.7,66.1z"/>
<image style="overflow:visible;" width="300" height="228" xlink:href="2F93516.jpg"  transform="matrix(0.3189 0 0 0.3189 114.3043 0.65)">
</image>
</svg>
