<?xml version="1.0" encoding="utf-8"?>
<!-- Generator: Adobe Illustrator 24.3.0, SVG Export Plug-In . SVG Version: 6.00 Build 0)  -->
<svg version="1.1" id="圖層_1" xmlns="http://www.w3.org/2000/svg" xmlns:xlink="http://www.w3.org/1999/xlink" x="0px" y="0px"
	 viewBox="0 0 96.88 74.02" style="enable-background:new 0 0 96.88 74.02;" xml:space="preserve">
<style type="text/css">
	.st0{fill:#006934;}
	.st1{fill:#E10012;}
	.st2{fill:#B50A12;}
	.st3{fill:#1E120D;}
	.st4{fill:#D5B24F;}
	.st5{fill:#0097DB;}
	.st6{fill:#7FC3EB;}
	.st7{fill:#1B6437;}
	.st8{fill:none;stroke:#006934;stroke-width:1.3026;}
	.st9{fill:#68632C;}
	.st10{fill:#837D38;}
	.st11{fill:#B3D958;}
	.st12{fill:#443D80;}
	.st13{fill:#03070D;}
	.st14{fill:#22298A;}
	.st15{fill:#2037B0;}
	.st16{fill:#54A5CB;}
	.st17{fill:#1B5D92;}
	.st18{fill:#1B4B88;}
	.st19{fill:#2B71D0;}
	.st20{fill:#3B88E0;}
	.st21{fill:#22929A;}
	.st22{fill:#68398D;}
	.st23{fill:#C7C7C8;}
	.st24{fill:#F2F0DF;}
	.st25{fill:#7E63A7;}
	.st26{fill:#1D6DC1;}
	.st27{fill:#645885;}
	.st28{fill:#A560C1;}
	.st29{fill:#CC3675;}
	.st30{fill:#43417F;}
	.st31{fill:#C8A5C9;}
	.st32{fill:#845CC1;}
	.st33{fill:#3A798B;}
	.st34{fill:#31B3F3;}
	.st35{fill:#00A7F5;}
	.st36{fill:#76659A;}
	.st37{fill:#7549B0;}
	.st38{fill:#703155;}
	.st39{fill:#8F4B70;}
	.st40{fill:#8B519A;}
	.st41{fill:#A881A9;}
	.st42{fill:#CB8ECA;}
	.st43{fill:#A75BB8;}
	.st44{fill:#93255D;}
	.st45{fill:#6E834A;}
	.st46{fill:#00CAC0;}
	.st47{fill:#EDEDB2;}
	.st48{fill:#4BDDA7;}
	.st49{fill:#EDE8D3;}
	.st50{fill:#D4D0BF;}
	.st51{fill:#90AC95;}
	.st52{fill:#5BD7C0;}
	.st53{fill:#80535A;}
	.st54{fill:#9E8CC0;}
	.st55{fill:#6E8080;}
	.st56{fill:#B49DB5;}
	.st57{fill:#3DBDAB;}
	.st58{fill:#00DAC7;}
	.st59{fill:#B1EE82;}
	.st60{fill:#78B791;}
	.st61{fill:#ECB2EA;}
	.st62{fill:#AAEB26;}
	.st63{fill:#EF71AD;}
	.st64{fill:#E04C8E;}
	.st65{fill:#A91C55;}
	.st66{fill:#7C1847;}
	.st67{fill:#B72662;}
	.st68{fill:#207AD6;}
	.st69{fill:#6B1A37;}
	.st70{fill:#C2BCA3;}
	.st71{fill:#A09CA9;}
	.st72{fill:#705C66;}
	.st73{fill:#AFA2B7;}
	.st74{fill:#19AEE7;}
	.st75{fill:#42C4F6;}
	.st76{fill:#A77FD0;}
	.st77{fill:#7F21AE;}
	.st78{fill:#3A7E9F;}
	.st79{fill:#64E5EC;}
	.st80{fill:#1E121E;}
	.st81{fill:#F5ADB9;}
	.st82{fill:#8A8CB2;}
	.st83{fill:#BEB6C7;}
	.st84{fill:#998495;}
	.st85{fill:#AA87A5;}
	.st86{fill:#DD9BD3;}
	.st87{fill:#20131C;}
	.st88{fill:#DF3C68;}
	.st89{fill:#F9C5DC;}
	.st90{fill:#5C4A5C;}
	.st91{fill:#817BB7;}
	.st92{fill:#F8F394;}
	.st93{fill:#BBB3B3;}
	.st94{fill:#231815;}
	.st95{fill:#EDE9E9;}
	.st96{fill:#FFFFFF;}
	.st97{fill:#89705D;}
	.st98{fill:#6D381A;}
	.st99{fill:#C5B6A6;}
	.st100{fill:#BA6632;}
	.st101{fill:#9A999A;}
	.st102{fill:#CCAC94;}
	.st103{fill:#E1EFF2;}
	.st104{fill:#4D4D63;}
	.st105{fill:#5E5E75;}
	.st106{fill:#4280BA;}
	.st107{fill:#0C1B43;}
	.st108{fill:#1D479B;}
	.st109{fill:#B5D0F5;}
	.st110{fill:#9DC4F0;}
	.st111{fill:#1D55B2;}
	.st112{fill:#3E6CCD;}
	.st113{fill:#F7F7F7;}
	.st114{fill:#F6F5D1;}
	.st115{fill:#EEEFF9;}
	.st116{fill:#F2F0CC;}
	.st117{fill:#F7F5E6;}
	.st118{fill:#214BBB;}
	.st119{fill:#6C6C7D;}
	.st120{fill:#2759AA;}
	.st121{fill:#A38F80;}
	.st122{fill:#958377;}
	.st123{fill:#3773C6;}
	.st124{fill:#221C18;}
	.st125{fill:#A8968C;}
	.st126{fill:#B3A397;}
	.st127{fill:#847566;}
	.st128{fill:#9D8E80;}
	.st129{fill:#594739;}
	.st130{fill:#6B584C;}
	.st131{fill:#519BDE;}
	.st132{fill:#54A6E7;}
	.st133{fill:#8CB6DD;}
	.st134{fill:#DAEDF0;}
	.st135{fill:#32499B;}
	.st136{fill:#E3F3FA;}
	.st137{fill:#90B6F0;}
	.st138{fill:#E3E7F8;}
	.st139{fill:#837769;}
	.st140{fill:#D9E0F7;}
	.st141{fill:#AEB7ED;}
	.st142{fill:#BDC2F1;}
	.st143{fill:#0F62C7;}
	.st144{fill:#004DB1;}
	.st145{fill:#4D59AB;}
	.st146{fill:#113763;}
	.st147{fill:#E2DDF2;}
	.st148{fill:#4788D7;}
	.st149{fill:#3B6BCC;}
	.st150{fill:#A28E76;}
	.st151{fill:#30C1C7;}
	.st152{fill:#008D8C;}
	.st153{fill:#090405;}
	.st154{fill:#645C29;}
	.st155{fill:#D7C09C;}
	.st156{fill:#D2A870;}
	.st157{fill:#D1A678;}
	.st158{fill:#CA925B;}
	.st159{fill:#BABABB;}
	.st160{fill:#8E8E8E;}
	.st161{fill:#D3D3D4;}
	.st162{fill:#CABD9C;}
	.st163{fill:#A4A4A5;}
	.st164{fill:#C8CACB;}
	.st165{fill:#CF5D7F;}
	.st166{fill:#D05456;}
	.st167{fill:#CF889C;}
	.st168{fill:#AF2F39;}
	.st169{fill:#CECFCF;}
	.st170{fill:#D8D39B;}
	.st171{fill:#C9A496;}
	.st172{fill:#CD734D;}
	.st173{fill:#0D091E;}
	.st174{fill:#CAC6C6;}
</style>
<g>
	<path class="st7" d="M11.68,11.11h38.83c0,0-8.02,7.35-8.5,8.54c-0.47,1.19-0.76,1.47-0.29,1.85c0.47,0.39,2.61,0.47,5.84-2.08
		c3.19-2.54,5.35-4.9,6.63-5.85c0.01-0.01,0.03-0.02,0.05-0.04c1.28-0.93,2.86-0.92,3.8-1.23c0.01,0,0.02,0,0.04-0.01
		c0.63-0.18,1.27-0.72,1.44-0.89c0.03-0.03,0.25-0.25,0.25-0.25s0.03,0,0.09,0c1.02,0,11.03,0.01,11.03,0.01S58.73,22.4,54.03,27.15
		c-4.7,4.75-10.58,11.49-16.09,12.82c-5.51,1.32-12.53,1.98-15.38,2.99c-2.85,1-10.87,4.88-10.87,4.88v-8.96
		c0,0,3.13-2.42,8.09-5.02c2.43-1.27,7.13-1.96,7.13-1.96s0,0,0.24-0.04c6.05,0.39,6.63-1.04,6.19-2.25
		c-0.01-0.02-0.01-0.04-0.02-0.06c-0.81-1.9-6.23-0.93-10.39,0.15c-1.38,0.35-2.86,0.4-3.77,0.69c-3.76,1.19-7.52,2.08-7.52,2.08
		L11.68,11.11z"/>
	<path class="st7" d="M23.96,48.64H47.5c0,0,1.15-0.69,3.2-2.1c2.05-1.41,1.84-1.49,3.5-2.43c1.66-0.94,3.33-0.17,3.63,0.13
		c0.3,0.3,0.34,1.46-0.21,2.25c-0.56,0.81-1.82,2.18-1.82,2.18l25.14,0.01V30.59c0,0-2.47,0.09-7.68,3.12
		c-5.21,3.03-6.03,4.06-8.16,4.43c-2.13,0.39-1.78,0.17-1.78,0.17s-0.08-1.45,0.77-2.18c0.86-0.73,7.25-4.43,8.7-5.71
		c1.45-1.28,3.62-1.4,5.33-2.39c1.71-0.98,2.86-2.04,2.86-2.04V12.77c0,0-7.34,2.28-12.2,6.3c-4.86,4.03-9.01,8.02-11.44,11.14
		c-2.43,3.11-9.98,9.64-13.39,11.51c-3.41,1.88-12.62,4.23-15.48,4.77C25.61,47.06,23.96,48.64,23.96,48.64z"/>
	<path class="st7" d="M50.52,11.11h9.51c0,0,0.43-0.64,3.2-2.39c2.77-1.75,4.05-5.93,2.94-5.85c-1.11,0.1-5.76,1.03-8.62,2.56
		C54.69,6.97,50.52,11.11,50.52,11.11z"/>
	<path class="st7" d="M71.16,11.15h9.81v1.62c0,0,3.03-0.31,5.63-1.37c2.61-1.06,3.67-2.73,4.1-3.88c0.43-1.16,0.55-2.81-0.09-3.12
		c-0.64-0.31-2.73,0.9-6.95,1.84c-4.23,0.94-4.65,0.55-7.68,1.96L71.16,11.15z"/>
	<path class="st7" d="M80.98,25.99v4.6c0,0,4.67,0.34,6.66-1.33c1.99-1.68,2.46-4.78,2.28-4.92c-0.17-0.14-0.35-0.64-2.99-0.07
		c-2.64,0.57-1.39,0.57-2.92,1.14C82.47,25.98,80.98,25.99,80.98,25.99z"/>
	<path class="st7" d="M47.5,48.64l8.3,0.04c0,0-2.1,3.1-5.55,5.34c-3.46,2.24-4.35,2-7.62,3.13c-3.27,1.14-3.63,1.68-5.76,2.14
		c-2.14,0.46-4.88-0.53-5.02-2.14c-0.14-1.6,0.68-3.03,2.49-3.84c1.82-0.81,3.24-1.13,6.47-2.03C44.55,49.7,47.5,48.64,47.5,48.64z"
		/>
	<path class="st7" d="M11.68,47.85v0.79h12.25c0,0-3.77,2.17-6.34,3.31c-2.56,1.13-1.71,0.39-2.89,1.38
		c-1.18,1.01-2.6,2.11-4.35,2.18c-1.74,0.07-3.88-0.4-3.84-2.45c0.04-2.07,0.5-2.52,1.71-3.46C9.44,48.67,11.68,47.85,11.68,47.85z"
		/>
	<path class="st7" d="M11.54,32.49c0.07-0.02,0.11-0.02,0.11-0.02l0.02,6.29c0,0-1.66,0.92-2.98,1.06
		c-1.32,0.14-3.67-0.96-4.02-1.28c-0.36-0.32-1.49-0.75-0.14-2.1c1.35-1.35,2.11-1.92,3.41-2.68C9.06,33.11,11.05,32.6,11.54,32.49z
		"/>
	<rect x="0.65" y="0.65" class="st8" width="95.58" height="72.71"/>
	<g>
		<path class="st7" d="M5.45,69.29v-8.05h1.12v7.1h4.17v0.95H5.45z"/>
		<path class="st7" d="M12.27,69.29v-8.05h1.12v8.05H12.27z"/>
		<path class="st7" d="M17.79,69.29l-3.28-8.05h1.21l2.2,5.85c0.18,0.47,0.33,0.91,0.45,1.32c0.13-0.44,0.28-0.88,0.45-1.32
			l2.29-5.85h1.15l-3.32,8.05H17.79z"/>
		<path class="st7" d="M23.46,69.29v-8.05h1.12v8.05H23.46z"/>
		<path class="st7" d="M26.54,69.29v-8.05h1.15l4.45,6.33v-6.33h1.07v8.05h-1.15l-4.44-6.33v6.33H26.54z"/>
		<path class="st7" d="M39.06,66.14V65.2h3.59v2.98c-0.55,0.42-1.12,0.74-1.71,0.94c-0.59,0.21-1.19,0.32-1.8,0.32
			c-0.83,0-1.59-0.17-2.27-0.51c-0.68-0.34-1.19-0.82-1.54-1.47c-0.35-0.64-0.52-1.35-0.52-2.15c0-0.79,0.17-1.52,0.52-2.2
			c0.35-0.68,0.84-1.18,1.49-1.52c0.65-0.33,1.39-0.5,2.24-0.5c0.61,0,1.17,0.1,1.66,0.29c0.49,0.19,0.88,0.45,1.16,0.79
			c0.29,0.34,0.5,0.77,0.64,1.31l-1.01,0.27c-0.12-0.41-0.29-0.74-0.47-0.97c-0.19-0.23-0.46-0.42-0.81-0.56
			c-0.35-0.14-0.74-0.22-1.17-0.22c-0.51,0-0.95,0.08-1.33,0.22c-0.37,0.16-0.68,0.35-0.9,0.59c-0.23,0.24-0.41,0.51-0.54,0.8
			c-0.22,0.5-0.32,1.04-0.32,1.62c0,0.72,0.13,1.32,0.39,1.81c0.25,0.48,0.63,0.84,1.13,1.08c0.5,0.23,1.03,0.35,1.59,0.35
			c0.49,0,0.96-0.09,1.43-0.26c0.46-0.18,0.81-0.38,1.05-0.57v-1.51H39.06z"/>
		<path class="st7" d="M47.22,66.72l1.05-0.1c0.05,0.4,0.17,0.74,0.35,0.99c0.18,0.26,0.47,0.47,0.85,0.63
			c0.39,0.16,0.82,0.24,1.3,0.24c0.42,0,0.8-0.07,1.13-0.19c0.32-0.12,0.57-0.29,0.73-0.49c0.16-0.22,0.24-0.44,0.24-0.69
			c0-0.25-0.08-0.47-0.23-0.66c-0.16-0.19-0.41-0.35-0.76-0.47c-0.23-0.09-0.73-0.22-1.51-0.4c-0.78-0.17-1.32-0.35-1.63-0.5
			c-0.4-0.2-0.71-0.45-0.91-0.75c-0.2-0.3-0.3-0.64-0.3-1.01c0-0.39,0.12-0.78,0.36-1.13c0.24-0.36,0.6-0.63,1.07-0.8
			c0.46-0.19,0.98-0.29,1.55-0.29c0.63,0,1.18,0.1,1.66,0.29c0.48,0.19,0.85,0.48,1.11,0.84c0.26,0.38,0.4,0.8,0.41,1.27l-1.07,0.08
			c-0.06-0.51-0.25-0.89-0.59-1.16c-0.34-0.25-0.82-0.39-1.48-0.39c-0.68,0-1.17,0.12-1.48,0.36c-0.31,0.23-0.46,0.52-0.46,0.84
			c0,0.29,0.11,0.54,0.33,0.72c0.21,0.19,0.78,0.38,1.69,0.57c0.91,0.19,1.53,0.38,1.87,0.51c0.49,0.22,0.86,0.5,1.09,0.83
			c0.23,0.33,0.35,0.71,0.35,1.14c0,0.44-0.13,0.84-0.39,1.22c-0.26,0.38-0.63,0.67-1.11,0.87c-0.48,0.21-1.03,0.32-1.63,0.32
			c-0.77,0-1.41-0.11-1.93-0.33c-0.52-0.21-0.92-0.53-1.22-0.95C47.38,67.74,47.23,67.25,47.22,66.72z"/>
		<path class="st7" d="M55.49,69.29v-8.05h3.2c0.56,0,0.99,0.03,1.29,0.08c0.42,0.07,0.76,0.19,1.05,0.37
			c0.28,0.19,0.51,0.45,0.68,0.78c0.17,0.34,0.26,0.7,0.26,1.1c0,0.69-0.23,1.26-0.68,1.74c-0.46,0.47-1.29,0.71-2.49,0.71h-2.17
			v3.27H55.49z M56.61,65.08h2.19c0.73,0,1.24-0.13,1.55-0.38c0.31-0.25,0.45-0.62,0.45-1.09c0-0.34-0.09-0.63-0.27-0.86
			c-0.18-0.23-0.41-0.4-0.7-0.48c-0.19-0.05-0.54-0.07-1.05-0.07h-2.17V65.08z"/>
		<path class="st7" d="M63.4,69.29v-8.05h3.76c0.76,0,1.33,0.07,1.72,0.21c0.39,0.14,0.71,0.4,0.94,0.76
			c0.23,0.38,0.35,0.78,0.35,1.23c0,0.56-0.19,1.04-0.59,1.44c-0.39,0.39-0.99,0.64-1.8,0.75c0.29,0.13,0.52,0.27,0.68,0.4
			c0.32,0.29,0.64,0.65,0.92,1.07l1.48,2.19h-1.41l-1.12-1.67c-0.33-0.48-0.6-0.85-0.81-1.11c-0.21-0.26-0.4-0.44-0.56-0.53
			c-0.17-0.11-0.34-0.18-0.51-0.22c-0.13-0.03-0.34-0.04-0.62-0.04h-1.31v3.57H63.4z M64.52,64.8h2.41c0.52,0,0.92-0.05,1.2-0.15
			c0.29-0.1,0.51-0.26,0.66-0.48c0.15-0.21,0.22-0.46,0.22-0.72c0-0.38-0.14-0.7-0.44-0.94c-0.29-0.25-0.75-0.37-1.38-0.37h-2.68
			V64.8z"/>
		<path class="st7" d="M72.12,69.29v-8.05h1.12v8.05H72.12z"/>
		<path class="st7" d="M75.21,69.29v-8.05h1.15l4.45,6.33v-6.33h1.08v8.05h-1.15l-4.45-6.33v6.33H75.21z"/>
		<path class="st7" d="M87.73,66.14V65.2h3.59v2.98c-0.55,0.42-1.12,0.74-1.7,0.94c-0.59,0.21-1.19,0.32-1.8,0.32
			c-0.84,0-1.59-0.17-2.27-0.51c-0.68-0.34-1.2-0.82-1.54-1.47c-0.35-0.64-0.52-1.35-0.52-2.15c0-0.79,0.17-1.52,0.52-2.2
			c0.34-0.68,0.84-1.18,1.49-1.52c0.65-0.33,1.39-0.5,2.23-0.5c0.62,0,1.17,0.1,1.67,0.29c0.49,0.19,0.88,0.45,1.16,0.79
			c0.28,0.34,0.49,0.77,0.64,1.31l-1.01,0.27c-0.13-0.41-0.29-0.74-0.48-0.97c-0.19-0.23-0.46-0.42-0.81-0.56
			c-0.35-0.14-0.74-0.22-1.17-0.22c-0.51,0-0.95,0.08-1.33,0.22c-0.37,0.16-0.68,0.35-0.91,0.59c-0.23,0.24-0.41,0.51-0.53,0.8
			c-0.22,0.5-0.33,1.04-0.33,1.62c0,0.72,0.13,1.32,0.39,1.81c0.26,0.48,0.64,0.84,1.13,1.08c0.5,0.23,1.02,0.35,1.58,0.35
			c0.48,0,0.96-0.09,1.43-0.26c0.46-0.18,0.81-0.38,1.05-0.57v-1.51H87.73z"/>
	</g>
</g>
</svg>
