<svg version="1.1" id="圖層_1" xmlns="http://www.w3.org/2000/svg" x="0" y="0" viewBox="0 0 96.88 74.02" style="enable-background:new 0 0 96.88 74.02" xml:space="preserve"><style>.st7{fill:#1b6437}</style><path class="st7" d="M11.68 11.11h38.83s-8.02 7.35-8.5 8.54c-.47 1.19-.76 1.47-.29 1.85.47.39 2.61.47 5.84-2.08 3.19-2.54 5.35-4.9 6.63-5.85.01-.01.03-.02.05-.04 1.28-.93 2.86-.92 3.8-1.23.01 0 .02 0 .04-.01.63-.18 1.27-.72 1.44-.89l.25-.25h.09l11.03.01S58.73 22.4 54.03 27.15c-4.7 4.75-10.58 11.49-16.09 12.82-5.51 1.32-12.53 1.98-15.38 2.99-2.85 1-10.87 4.88-10.87 4.88v-8.96s3.13-2.42 8.09-5.02c2.43-1.27 7.13-1.96 7.13-1.96l.24-.04c6.05.39 6.63-1.04 6.19-2.25-.01-.02-.01-.04-.02-.06-.81-1.9-6.23-.93-10.39.15-1.38.35-2.86.4-3.77.69-3.76 1.19-7.52 2.08-7.52 2.08l.04-21.36z"/><path class="st7" d="M23.96 48.64H47.5s1.15-.69 3.2-2.1c2.05-1.41 1.84-1.49 3.5-2.43 1.66-.94 3.33-.17 3.63.13.3.3.34 1.46-.21 2.25-.56.81-1.82 2.18-1.82 2.18l25.14.01V30.59s-2.47.09-7.68 3.12c-5.21 3.03-6.03 4.06-8.16 4.43-2.13.39-1.78.17-1.78.17s-.08-1.45.77-2.18c.86-.73 7.25-4.43 8.7-5.71 1.45-1.28 3.62-1.4 5.33-2.39 1.71-.98 2.86-2.04 2.86-2.04V12.77s-7.34 2.28-12.2 6.3c-4.86 4.03-9.01 8.02-11.44 11.14-2.43 3.11-9.98 9.64-13.39 11.51-3.41 1.88-12.62 4.23-15.48 4.77-2.86.57-4.51 2.15-4.51 2.15zM50.52 11.11h9.51s.43-.64 3.2-2.39 4.05-5.93 2.94-5.85c-1.11.1-5.76 1.03-8.62 2.56-2.86 1.54-7.03 5.68-7.03 5.68zM71.16 11.15h9.81v1.62s3.03-.31 5.63-1.37c2.61-1.06 3.67-2.73 4.1-3.88.43-1.16.55-2.81-.09-3.12-.64-.31-2.73.9-6.95 1.84-4.23.94-4.65.55-7.68 1.96l-4.82 2.95zM80.98 25.99v4.6s4.67.34 6.66-1.33c1.99-1.68 2.46-4.78 2.28-4.92-.17-.14-.35-.64-2.99-.07-2.64.57-1.39.57-2.92 1.14-1.54.57-3.03.58-3.03.58z"/><path class="st7" d="m47.5 48.64 8.3.04s-2.1 3.1-5.55 5.34c-3.46 2.24-4.35 2-7.62 3.13-3.27 1.14-3.63 1.68-5.76 2.14-2.14.46-4.88-.53-5.02-2.14-.14-1.6.68-3.03 2.49-3.84 1.82-.81 3.24-1.13 6.47-2.03 3.74-1.58 6.69-2.64 6.69-2.64zM11.68 47.85v.79h12.25s-3.77 2.17-6.34 3.31c-2.56 1.13-1.71.39-2.89 1.38-1.18 1.01-2.6 2.11-4.35 2.18-1.74.07-3.88-.4-3.84-2.45.04-2.07.5-2.52 1.71-3.46 1.22-.93 3.46-1.75 3.46-1.75zM11.54 32.49c.07-.02.11-.02.11-.02l.02 6.29s-1.66.92-2.98 1.06-3.67-.96-4.02-1.28c-.36-.32-1.49-.75-.14-2.1s2.11-1.92 3.41-2.68c1.12-.65 3.11-1.16 3.6-1.27z"/><path style="fill:none;stroke:#006934;stroke-width:1.3026" d="M.65.65h95.58v72.71H.65z"/><path class="st7" d="M5.45 69.29v-8.05h1.12v7.1h4.17v.95H5.45zM12.27 69.29v-8.05h1.12v8.05h-1.12zM17.79 69.29l-3.28-8.05h1.21l2.2 5.85c.18.47.33.91.45 1.32.13-.44.28-.88.45-1.32l2.29-5.85h1.15l-3.32 8.05h-1.15zM23.46 69.29v-8.05h1.12v8.05h-1.12zM26.54 69.29v-8.05h1.15l4.45 6.33v-6.33h1.07v8.05h-1.15l-4.44-6.33v6.33h-1.08zM39.06 66.14v-.94h3.59v2.98c-.55.42-1.12.74-1.71.94-.59.21-1.19.32-1.8.32-.83 0-1.59-.17-2.27-.51-.68-.34-1.19-.82-1.54-1.47-.35-.64-.52-1.35-.52-2.15 0-.79.17-1.52.52-2.2.35-.68.84-1.18 1.49-1.52.65-.33 1.39-.5 2.24-.5.61 0 1.17.1 1.66.29.49.19.88.45 1.16.79.29.34.5.77.64 1.31l-1.01.27c-.12-.41-.29-.74-.47-.97-.19-.23-.46-.42-.81-.56-.35-.14-.74-.22-1.17-.22-.51 0-.95.08-1.33.22-.37.16-.68.35-.9.59-.23.24-.41.51-.54.8-.22.5-.32 1.04-.32 1.62 0 .72.13 1.32.39 1.81.25.48.63.84 1.13 1.08.5.23 1.03.35 1.59.35.49 0 .96-.09 1.43-.26.46-.18.81-.38 1.05-.57v-1.51h-2.5zM47.22 66.72l1.05-.1c.05.4.17.74.35.99.18.26.47.47.85.63.39.16.82.24 1.3.24.42 0 .8-.07 1.13-.19.32-.12.57-.29.73-.49.16-.22.24-.44.24-.69 0-.25-.08-.47-.23-.66-.16-.19-.41-.35-.76-.47-.23-.09-.73-.22-1.51-.4-.78-.17-1.32-.35-1.63-.5-.4-.2-.71-.45-.91-.75-.2-.3-.3-.64-.3-1.01 0-.39.12-.78.36-1.13.24-.36.6-.63 1.07-.8.46-.19.98-.29 1.55-.29.63 0 1.18.1 1.66.29.48.19.85.48 1.11.84.26.38.4.8.41 1.27l-1.07.08c-.06-.51-.25-.89-.59-1.16-.34-.25-.82-.39-1.48-.39-.68 0-1.17.12-1.48.36-.31.23-.46.52-.46.84 0 .29.11.54.33.72.21.19.78.38 1.69.57.91.19 1.53.38 1.87.51.49.22.86.5 1.09.83.23.33.35.71.35 1.14 0 .44-.13.84-.39 1.22s-.63.67-1.11.87c-.48.21-1.03.32-1.63.32-.77 0-1.41-.11-1.93-.33-.52-.21-.92-.53-1.22-.95-.28-.39-.43-.88-.44-1.41zM55.49 69.29v-8.05h3.2c.56 0 .99.03 1.29.08.42.07.76.19 1.05.37.28.19.51.45.68.78.17.34.26.7.26 1.1 0 .69-.23 1.26-.68 1.74-.46.47-1.29.71-2.49.71h-2.17v3.27h-1.14zm1.12-4.21h2.19c.73 0 1.24-.13 1.55-.38.31-.25.45-.62.45-1.09 0-.34-.09-.63-.27-.86-.18-.23-.41-.4-.7-.48-.19-.05-.54-.07-1.05-.07h-2.17v2.88zM63.4 69.29v-8.05h3.76c.76 0 1.33.07 1.72.21.39.14.71.4.94.76.23.38.35.78.35 1.23 0 .56-.19 1.04-.59 1.44-.39.39-.99.64-1.8.75.29.13.52.27.68.4.32.29.64.65.92 1.07l1.48 2.19h-1.41l-1.12-1.67c-.33-.48-.6-.85-.81-1.11-.21-.26-.4-.44-.56-.53a1.61 1.61 0 0 0-.51-.22c-.13-.03-.34-.04-.62-.04h-1.31v3.57H63.4zm1.12-4.49h2.41c.52 0 .92-.05 1.2-.15.29-.1.51-.26.66-.48.15-.21.22-.46.22-.72 0-.38-.14-.7-.44-.94-.29-.25-.75-.37-1.38-.37h-2.68v2.66zM72.12 69.29v-8.05h1.12v8.05h-1.12zM75.21 69.29v-8.05h1.15l4.45 6.33v-6.33h1.08v8.05h-1.15l-4.45-6.33v6.33h-1.08zM87.73 66.14v-.94h3.59v2.98c-.55.42-1.12.74-1.7.94-.59.21-1.19.32-1.8.32-.84 0-1.59-.17-2.27-.51-.68-.34-1.2-.82-1.54-1.47-.35-.64-.52-1.35-.52-2.15 0-.79.17-1.52.52-2.2.34-.68.84-1.18 1.49-1.52.65-.33 1.39-.5 2.23-.5.62 0 1.17.1 1.67.29.49.19.88.45 1.16.79.28.34.49.77.64 1.31l-1.01.27c-.13-.41-.29-.74-.48-.97-.19-.23-.46-.42-.81-.56-.35-.14-.74-.22-1.17-.22-.51 0-.95.08-1.33.22-.37.16-.68.35-.91.59-.23.24-.41.51-.53.8-.22.5-.33 1.04-.33 1.62 0 .72.13 1.32.39 1.81.26.48.64.84 1.13 1.08.5.23 1.02.35 1.58.35a4.197 4.197 0 0 0 2.48-.83v-1.51h-2.48z"/></svg>