<?xml version="1.0" encoding="utf-8"?>
<!-- Generator: Adobe Illustrator 24.3.0, SVG Export Plug-In . SVG Version: 6.00 Build 0)  -->
<svg version="1.1" id="圖層_1" xmlns="http://www.w3.org/2000/svg" xmlns:xlink="http://www.w3.org/1999/xlink" x="0px" y="0px"
	 viewBox="0 0 339.9 39.8" style="enable-background:new 0 0 339.9 39.8;" xml:space="preserve">
<style type="text/css">
	.st0{fill:#B50A12;}
	.st1{fill:#1E120D;}
</style>
<g>
	<g>
		<path class="st0" d="M4.9,11c-0.1,0.1-0.1,0.2-0.2,0.2C4.8,11.1,4.8,11,4.9,11L4.9,11z"/>
		<path class="st0" d="M0.2,21.5L0.2,21.5L0.3,21C0.2,21.2,0.2,21.4,0.2,21.5z"/>
		<path class="st0" d="M2.9,33C3,33,3,33.1,2.9,33l-0.3-0.4C2.7,32.7,2.8,32.9,2.9,33z"/>
		<path class="st0" d="M27.6,0C22.8-0.1,18,1.2,13.7,3.5h9.9l-0.3,0.8h0.5l-2.6,7.4H4.3c0.1-0.1,0.1-0.2,0.2-0.2
			c-0.1,0.1-0.1,0.2-0.2,0.2c-0.2,0.2-0.3,0.4-0.5,0.7c-0.4,0.6-0.7,1.1-1,1.7l17.5,0L20,14.9l0,0h0.5l-2.3,6.7H0.2
			c0,0.3-0.1,0.5-0.1,0.8C0,23.2,0,24.1,0,24.9h16.4l0,0l0,0l-0.2,0.7l0,0h0.6l-2.6,7.5H3c0.2,0.3,0.4,0.5,0.6,0.7
			c3.1,3.6,8,5.8,14,6c12.1,0.2,24.2-8.5,27-19.5C47.3,9.3,39.7,0.2,27.6,0z"/>
		<polygon class="st0" points="2.7,14.1 20.2,14.2 2.7,14.1 		"/>
		<polygon class="st0" points="16.2,25.6 16.5,24.9 16.5,24.9 16.2,25.6 13.9,32.3 2.5,32.3 2.5,32.3 13.9,32.3 		"/>
		<path class="st0" d="M4.4,11.5c0.1-0.1,0.2-0.2,0.3-0.4C4.6,11.3,4.5,11.4,4.4,11.5z"/>
		<path class="st0" d="M23.4,4.4L23.4,4.4L23.4,4.4z"/>
		<path class="st1" d="M21.3,11.8l2.6-7.4h-0.5l0,0L21.1,11H4.9c-0.1,0.1-0.1,0.2-0.2,0.2c-0.1,0.1-0.2,0.2-0.3,0.4
			c-0.1,0.1-0.1,0.2-0.2,0.2L21.3,11.8L21.3,11.8z"/>
		<path class="st0" d="M0.2,21.6L0.2,21.6C0.2,21.6,0.2,21.6,0.2,21.6L0.2,21.6z"/>
		<path class="st0" d="M0.3,20.8l0,0.2C0.3,21,0.3,20.9,0.3,20.8L0.3,20.8z"/>
		<path class="st1" d="M20.5,14.9H20l0,0l-2,5.9H0.3l0,0c0,0.1,0,0.1,0,0.2l-0.1,0.5c0,0,0,0,0,0h18.1L20.5,14.9z"/>
		<path class="st0" d="M3,33.1L3,33.1C3,33.1,3,33.1,3,33.1L3,33.1z"/>
		<path class="st0" d="M2.5,32.3c0,0.1,0.1,0.1,0.1,0.2l0,0.1C2.6,32.5,2.5,32.4,2.5,32.3L2.5,32.3z"/>
		<path class="st1" d="M16.8,25.6h-0.6l0,0l-2.3,6.8H2.5c0,0.1,0.1,0.2,0.2,0.2L3,33.1c0,0,0,0,0,0h11.2L16.8,25.6z"/>
	</g>
	<g>
		<g>
			<polygon class="st0" points="66.9,30.9 81.2,30.9 81.2,37.3 60.3,37.3 60.3,3.4 81,3.4 81,9.8 66.9,9.8 66.9,17 79.8,17 
				79.8,23.3 66.9,23.3 			"/>
			<path class="st0" d="M98.6,17.1h-6.4v13.1c0,1.2,0.2,2,0.7,2.5c0.5,0.5,1.2,0.8,2.2,0.8s2.2,0,3.6-0.1v3.8
				c-3.7,0.5-6.4,0.2-8.1-0.9c-1.7-1.1-2.6-3.1-2.6-6.1V17.1h-4.8V13H88V7.5l4.2-1.3V13h6.4C98.6,13,98.6,17.1,98.6,17.1z"/>
			<path class="st0" d="M104.9,27.1c0.4,2.2,1.4,3.8,3,5c1.6,1.2,3.5,1.8,5.8,1.8c3.2,0,5.5-1.2,7-3.5l3.6,2
				c-2.3,3.6-5.9,5.5-10.7,5.5c-3.8,0-7-1.2-9.4-3.6s-3.6-5.4-3.6-9.1c0-3.6,1.2-6.7,3.5-9.1c2.3-2.4,5.4-3.6,9.2-3.6
				c3.5,0,6.5,1.3,8.7,3.7c2.2,2.5,3.4,5.5,3.4,9c0,0.6,0,1.2-0.1,1.9L104.9,27.1L104.9,27.1z M113.3,16.4c-2.3,0-4.1,0.6-5.6,1.9
				c-1.5,1.3-2.4,3-2.8,5.1h16.2c-0.4-2.3-1.3-4-2.7-5.2C116.9,17,115.2,16.4,113.3,16.4"/>
			<path class="st0" d="M133.9,17.1c1.4-3,3.9-4.5,7.5-4.5V17c-2.1-0.1-3.8,0.5-5.3,1.7c-1.5,1.2-2.2,3.1-2.2,5.8v12.8h-4.2V13.1
				h4.2C133.9,13.1,133.9,17.1,133.9,17.1z"/>
			<path class="st0" d="M157.1,12.4c2.8,0,5.1,0.9,6.8,2.7c1.7,1.8,2.6,4.2,2.6,7.3v14.9h-4.2V22.6c0-2-0.5-3.5-1.6-4.6
				c-1.1-1.1-2.5-1.6-4.4-1.6c-2.1,0-3.8,0.7-5.1,2c-1.3,1.3-1.9,3.3-1.9,6v12.8h-4.2V13h4.2v3.5C151,13.8,153.6,12.4,157.1,12.4"/>
			<path class="st0" d="M191.9,13h4.2v24.2h-4.2v-4.2c-2.1,3.2-5.2,4.8-9.2,4.8c-3.4,0-6.3-1.2-8.7-3.7c-2.4-2.5-3.6-5.5-3.6-9
				s1.2-6.6,3.6-9c2.4-2.5,5.3-3.7,8.7-3.7c4,0,7,1.6,9.2,4.8V13z M183.3,33.8c2.4,0,4.5-0.8,6.2-2.5s2.5-3.7,2.5-6.2
				s-0.8-4.5-2.5-6.2c-1.7-1.7-3.7-2.5-6.2-2.5c-2.4,0-4.5,0.8-6.1,2.5c-1.7,1.7-2.5,3.7-2.5,6.2s0.8,4.5,2.5,6.2
				S180.9,33.8,183.3,33.8"/>
			<rect x="202" y="1.9" class="st0" width="4.2" height="35.3"/>
			<path class="st0" d="M227.5,19.5c0,0.9,0.5,1.7,1.4,2.2c1,0.6,2.1,1,3.4,1.4c1.3,0.4,2.6,0.8,4,1.2c1.3,0.4,2.5,1.1,3.4,2.2
				c0.9,1.1,1.4,2.4,1.4,4.1c0,2.2-0.9,4-2.5,5.3c-1.7,1.3-3.9,2-6.5,2c-2.3,0-4.4-0.5-6.1-1.6c-1.7-1-2.9-2.4-3.6-4.1l3.6-2.1
				c0.4,1.2,1.1,2.1,2.2,2.8c1.1,0.7,2.3,1,3.8,1c1.4,0,2.5-0.3,3.4-0.8c0.9-0.5,1.4-1.4,1.4-2.5c0-0.9-0.5-1.7-1.4-2.2
				c-0.9-0.6-2.1-1-3.4-1.4c-1.3-0.4-2.6-0.8-4-1.2c-1.3-0.4-2.5-1.1-3.4-2.2c-0.9-1-1.4-2.3-1.4-4c0-2.1,0.8-3.8,2.4-5.2
				c1.6-1.4,3.7-2,6.1-2c2,0,3.7,0.4,5.3,1.3c1.5,0.9,2.7,2.1,3.5,3.7l-3.5,2c-0.9-2.1-2.6-3.1-5.2-3.1c-1.2,0-2.2,0.3-3,0.8
				C227.9,17.7,227.5,18.5,227.5,19.5"/>
			<path class="st0" d="M257.7,17.1h-6.4v13.1c0,1.2,0.2,2,0.7,2.5c0.5,0.5,1.2,0.8,2.2,0.8s2.2,0,3.6-0.1v3.8
				c-3.7,0.5-6.4,0.2-8.1-0.9c-1.7-1.1-2.6-3.1-2.6-6.1V17.1h-4.8V13h4.8V7.5l4.2-1.3V13h6.4L257.7,17.1L257.7,17.1z"/>
			<path class="st0" d="M281.4,34.2c-2.5,2.4-5.5,3.7-9.1,3.7c-3.5,0-6.6-1.2-9-3.7c-2.5-2.4-3.7-5.5-3.7-9.1s1.2-6.6,3.7-9.1
				c2.5-2.4,5.5-3.7,9-3.7c3.5,0,6.6,1.2,9.1,3.7s3.7,5.5,3.7,9.1C285.2,28.7,283.9,31.8,281.4,34.2 M272.4,33.8
				c2.4,0,4.5-0.8,6.1-2.5c1.7-1.7,2.5-3.7,2.5-6.2c0-2.4-0.8-4.5-2.5-6.2c-1.7-1.7-3.7-2.5-6.1-2.5c-2.4,0-4.4,0.8-6.1,2.5
				c-1.7,1.7-2.5,3.7-2.5,6.2s0.8,4.5,2.5,6.2C268,32.9,270,33.8,272.4,33.8"/>
			<path class="st0" d="M301.7,12.4c2.8,0,5.1,0.9,6.8,2.7c1.7,1.8,2.6,4.2,2.6,7.3v14.9h-4.2V22.6c0-2-0.5-3.5-1.6-4.6
				c-1.1-1.1-2.5-1.6-4.4-1.6c-2.1,0-3.8,0.7-5.1,2c-1.3,1.3-1.9,3.3-1.9,6v12.8h-4.2V13h4.2v3.5C295.6,13.8,298.2,12.4,301.7,12.4"
				/>
			<path class="st0" d="M319.4,27.1c0.4,2.2,1.4,3.8,3,5c1.6,1.2,3.5,1.8,5.8,1.8c3.2,0,5.5-1.2,7-3.5l3.6,2
				c-2.3,3.6-5.9,5.5-10.7,5.5c-3.8,0-7-1.2-9.4-3.6s-3.6-5.4-3.6-9.1c0-3.6,1.2-6.7,3.5-9.1c2.3-2.4,5.4-3.6,9.2-3.6
				c3.5,0,6.5,1.3,8.7,3.7c2.2,2.5,3.4,5.5,3.4,9c0,0.6,0,1.2-0.1,1.9L319.4,27.1L319.4,27.1z M327.8,16.4c-2.3,0-4.1,0.6-5.6,1.9
				c-1.5,1.3-2.4,3-2.8,5.1h16.2c-0.4-2.3-1.3-4-2.7-5.2C331.5,17,329.8,16.4,327.8,16.4"/>
		</g>
	</g>
</g>
</svg>
