<svg version="1.1" id="圖層_1" xmlns="http://www.w3.org/2000/svg" x="0" y="0" viewBox="0 0 339.9 39.8" style="enable-background:new 0 0 339.9 39.8" xml:space="preserve"><style>.st0{fill:#b50a12}.st1{fill:#1e120d}</style><path class="st0" d="M4.9 11c-.1.1-.1.2-.2.2.1-.1.1-.2.2-.2zM.2 21.5l.1-.5c-.1.2-.1.4-.1.5zM2.9 33c.1 0 .1.1 0 0l-.3-.4c.1.1.2.3.3.4z"/><path class="st0" d="M27.6 0C22.8-.1 18 1.2 13.7 3.5h9.9l-.3.8h.5l-2.6 7.4H4.3c.1-.1.1-.2.2-.2-.1.1-.1.2-.2.2-.2.2-.3.4-.5.7-.4.6-.7 1.1-1 1.7h17.5l-.3.8h.5l-2.3 6.7H.2c0 .3-.1.5-.1.8-.1.8-.1 1.7-.1 2.5h16.4l-.2.7h.6l-2.6 7.5H3c.2.3.4.5.6.7 3.1 3.6 8 5.8 14 6 12.1.2 24.2-8.5 27-19.5C47.3 9.3 39.7.2 27.6 0z"/><path class="st0" d="m2.7 14.1 17.5.1-17.5-.1zM16.2 25.6l.3-.7-.3.7-2.3 6.7H2.5h11.4zM4.4 11.5c.1-.1.2-.2.3-.4-.1.2-.2.3-.3.4zM23.4 4.4z"/><path class="st1" d="m21.3 11.8 2.6-7.4h-.5L21.1 11H4.9c-.1.1-.1.2-.2.2-.1.1-.2.2-.3.4-.1.1-.1.2-.2.2h17.1z"/><path class="st0" d="M.2 21.6zM.3 20.8v.2-.2z"/><path class="st1" d="M20.5 14.9H20l-2 5.9H.3v.2l-.1.5h18.1l2.2-6.6z"/><path class="st0" d="M3 33.1zM2.5 32.3c0 .1.1.1.1.2v.1c0-.1-.1-.2-.1-.3z"/><path class="st1" d="M16.8 25.6h-.6l-2.3 6.8H2.5c0 .1.1.2.2.2l.3.5h11.2l2.6-7.5z"/><path class="st0" d="M66.9 30.9h14.3v6.4H60.3V3.4H81v6.4H66.9V17h12.9v6.3H66.9zM98.6 17.1h-6.4v13.1c0 1.2.2 2 .7 2.5.5.5 1.2.8 2.2.8s2.2 0 3.6-.1v3.8c-3.7.5-6.4.2-8.1-.9-1.7-1.1-2.6-3.1-2.6-6.1V17.1h-4.8V13H88V7.5l4.2-1.3V13h6.4v4.1zM104.9 27.1c.4 2.2 1.4 3.8 3 5 1.6 1.2 3.5 1.8 5.8 1.8 3.2 0 5.5-1.2 7-3.5l3.6 2c-2.3 3.6-5.9 5.5-10.7 5.5-3.8 0-7-1.2-9.4-3.6s-3.6-5.4-3.6-9.1c0-3.6 1.2-6.7 3.5-9.1 2.3-2.4 5.4-3.6 9.2-3.6 3.5 0 6.5 1.3 8.7 3.7 2.2 2.5 3.4 5.5 3.4 9 0 .6 0 1.2-.1 1.9h-20.4zm8.4-10.7c-2.3 0-4.1.6-5.6 1.9-1.5 1.3-2.4 3-2.8 5.1h16.2c-.4-2.3-1.3-4-2.7-5.2-1.5-1.2-3.2-1.8-5.1-1.8M133.9 17.1c1.4-3 3.9-4.5 7.5-4.5V17c-2.1-.1-3.8.5-5.3 1.7s-2.2 3.1-2.2 5.8v12.8h-4.2V13.1h4.2v4zM157.1 12.4c2.8 0 5.1.9 6.8 2.7 1.7 1.8 2.6 4.2 2.6 7.3v14.9h-4.2V22.6c0-2-.5-3.5-1.6-4.6-1.1-1.1-2.5-1.6-4.4-1.6-2.1 0-3.8.7-5.1 2-1.3 1.3-1.9 3.3-1.9 6v12.8h-4.2V13h4.2v3.5c1.7-2.7 4.3-4.1 7.8-4.1M191.9 13h4.2v24.2h-4.2V33c-2.1 3.2-5.2 4.8-9.2 4.8-3.4 0-6.3-1.2-8.7-3.7-2.4-2.5-3.6-5.5-3.6-9s1.2-6.6 3.6-9c2.4-2.5 5.3-3.7 8.7-3.7 4 0 7 1.6 9.2 4.8V13zm-8.6 20.8c2.4 0 4.5-.8 6.2-2.5s2.5-3.7 2.5-6.2-.8-4.5-2.5-6.2c-1.7-1.7-3.7-2.5-6.2-2.5-2.4 0-4.5.8-6.1 2.5-1.7 1.7-2.5 3.7-2.5 6.2s.8 4.5 2.5 6.2 3.7 2.5 6.1 2.5M202 1.9h4.2v35.3H202zM227.5 19.5c0 .9.5 1.7 1.4 2.2 1 .6 2.1 1 3.4 1.4 1.3.4 2.6.8 4 1.2 1.3.4 2.5 1.1 3.4 2.2.9 1.1 1.4 2.4 1.4 4.1 0 2.2-.9 4-2.5 5.3-1.7 1.3-3.9 2-6.5 2-2.3 0-4.4-.5-6.1-1.6-1.7-1-2.9-2.4-3.6-4.1l3.6-2.1c.4 1.2 1.1 2.1 2.2 2.8 1.1.7 2.3 1 3.8 1 1.4 0 2.5-.3 3.4-.8.9-.5 1.4-1.4 1.4-2.5 0-.9-.5-1.7-1.4-2.2-.9-.6-2.1-1-3.4-1.4-1.3-.4-2.6-.8-4-1.2-1.3-.4-2.5-1.1-3.4-2.2-.9-1-1.4-2.3-1.4-4 0-2.1.8-3.8 2.4-5.2 1.6-1.4 3.7-2 6.1-2 2 0 3.7.4 5.3 1.3 1.5.9 2.7 2.1 3.5 3.7l-3.5 2c-.9-2.1-2.6-3.1-5.2-3.1-1.2 0-2.2.3-3 .8-.9.6-1.3 1.4-1.3 2.4M257.7 17.1h-6.4v13.1c0 1.2.2 2 .7 2.5.5.5 1.2.8 2.2.8s2.2 0 3.6-.1v3.8c-3.7.5-6.4.2-8.1-.9-1.7-1.1-2.6-3.1-2.6-6.1V17.1h-4.8V13h4.8V7.5l4.2-1.3V13h6.4v4.1zM281.4 34.2c-2.5 2.4-5.5 3.7-9.1 3.7-3.5 0-6.6-1.2-9-3.7-2.5-2.4-3.7-5.5-3.7-9.1s1.2-6.6 3.7-9.1c2.5-2.4 5.5-3.7 9-3.7s6.6 1.2 9.1 3.7 3.7 5.5 3.7 9.1c.1 3.6-1.2 6.7-3.7 9.1m-9-.4c2.4 0 4.5-.8 6.1-2.5 1.7-1.7 2.5-3.7 2.5-6.2 0-2.4-.8-4.5-2.5-6.2-1.7-1.7-3.7-2.5-6.1-2.5-2.4 0-4.4.8-6.1 2.5-1.7 1.7-2.5 3.7-2.5 6.2s.8 4.5 2.5 6.2c1.7 1.6 3.7 2.5 6.1 2.5M301.7 12.4c2.8 0 5.1.9 6.8 2.7 1.7 1.8 2.6 4.2 2.6 7.3v14.9h-4.2V22.6c0-2-.5-3.5-1.6-4.6-1.1-1.1-2.5-1.6-4.4-1.6-2.1 0-3.8.7-5.1 2-1.3 1.3-1.9 3.3-1.9 6v12.8h-4.2V13h4.2v3.5c1.7-2.7 4.3-4.1 7.8-4.1M319.4 27.1c.4 2.2 1.4 3.8 3 5 1.6 1.2 3.5 1.8 5.8 1.8 3.2 0 5.5-1.2 7-3.5l3.6 2c-2.3 3.6-5.9 5.5-10.7 5.5-3.8 0-7-1.2-9.4-3.6s-3.6-5.4-3.6-9.1c0-3.6 1.2-6.7 3.5-9.1 2.3-2.4 5.4-3.6 9.2-3.6 3.5 0 6.5 1.3 8.7 3.7 2.2 2.5 3.4 5.5 3.4 9 0 .6 0 1.2-.1 1.9h-20.4zm8.4-10.7c-2.3 0-4.1.6-5.6 1.9-1.5 1.3-2.4 3-2.8 5.1h16.2c-.4-2.3-1.3-4-2.7-5.2-1.4-1.2-3.1-1.8-5.1-1.8"/></svg>