<?xml version="1.0" encoding="utf-8"?>
<!-- Generator: Adobe Illustrator 24.3.0, SVG Export Plug-In . SVG Version: 6.00 Build 0)  -->
<svg version="1.1" id="圖層_1" xmlns="http://www.w3.org/2000/svg" xmlns:xlink="http://www.w3.org/1999/xlink" x="0px" y="0px"
	 viewBox="0 0 267.21 42.52" style="enable-background:new 0 0 267.21 42.52;" xml:space="preserve">
<style type="text/css">
	.st0{fill:#006934;}
	.st1{fill:#E10012;}
	.st2{fill:#B50A12;}
	.st3{fill:#1E120D;}
	.st4{fill:#D5B24F;}
	.st5{fill:#0097DB;}
	.st6{fill:#7FC3EB;}
	.st7{fill:#1B6437;}
	.st8{fill:none;stroke:#006934;stroke-width:1.3026;}
	.st9{fill:#68632C;}
	.st10{fill:#837D38;}
	.st11{fill:#B3D958;}
	.st12{fill:#443D80;}
	.st13{fill:#03070D;}
	.st14{fill:#22298A;}
	.st15{fill:#2037B0;}
	.st16{fill:#54A5CB;}
	.st17{fill:#1B5D92;}
	.st18{fill:#1B4B88;}
	.st19{fill:#2B71D0;}
	.st20{fill:#3B88E0;}
	.st21{fill:#22929A;}
	.st22{fill:#68398D;}
	.st23{fill:#C7C7C8;}
	.st24{fill:#F2F0DF;}
	.st25{fill:#7E63A7;}
	.st26{fill:#1D6DC1;}
	.st27{fill:#645885;}
	.st28{fill:#A560C1;}
	.st29{fill:#CC3675;}
	.st30{fill:#43417F;}
	.st31{fill:#C8A5C9;}
	.st32{fill:#845CC1;}
	.st33{fill:#3A798B;}
	.st34{fill:#31B3F3;}
	.st35{fill:#00A7F5;}
	.st36{fill:#76659A;}
	.st37{fill:#7549B0;}
	.st38{fill:#703155;}
	.st39{fill:#8F4B70;}
	.st40{fill:#8B519A;}
	.st41{fill:#A881A9;}
	.st42{fill:#CB8ECA;}
	.st43{fill:#A75BB8;}
	.st44{fill:#93255D;}
	.st45{fill:#6E834A;}
	.st46{fill:#00CAC0;}
	.st47{fill:#EDEDB2;}
	.st48{fill:#4BDDA7;}
	.st49{fill:#EDE8D3;}
	.st50{fill:#D4D0BF;}
	.st51{fill:#90AC95;}
	.st52{fill:#5BD7C0;}
	.st53{fill:#80535A;}
	.st54{fill:#9E8CC0;}
	.st55{fill:#6E8080;}
	.st56{fill:#B49DB5;}
	.st57{fill:#3DBDAB;}
	.st58{fill:#00DAC7;}
	.st59{fill:#B1EE82;}
	.st60{fill:#78B791;}
	.st61{fill:#ECB2EA;}
	.st62{fill:#AAEB26;}
	.st63{fill:#EF71AD;}
	.st64{fill:#E04C8E;}
	.st65{fill:#A91C55;}
	.st66{fill:#7C1847;}
	.st67{fill:#B72662;}
	.st68{fill:#207AD6;}
	.st69{fill:#6B1A37;}
	.st70{fill:#C2BCA3;}
	.st71{fill:#A09CA9;}
	.st72{fill:#705C66;}
	.st73{fill:#AFA2B7;}
	.st74{fill:#19AEE7;}
	.st75{fill:#42C4F6;}
	.st76{fill:#A77FD0;}
	.st77{fill:#7F21AE;}
	.st78{fill:#3A7E9F;}
	.st79{fill:#64E5EC;}
	.st80{fill:#1E121E;}
	.st81{fill:#F5ADB9;}
	.st82{fill:#8A8CB2;}
	.st83{fill:#BEB6C7;}
	.st84{fill:#998495;}
	.st85{fill:#AA87A5;}
	.st86{fill:#DD9BD3;}
	.st87{fill:#20131C;}
	.st88{fill:#DF3C68;}
	.st89{fill:#F9C5DC;}
	.st90{fill:#5C4A5C;}
	.st91{fill:#817BB7;}
	.st92{fill:#F8F394;}
	.st93{fill:#BBB3B3;}
	.st94{fill:#231815;}
	.st95{fill:#EDE9E9;}
	.st96{fill:#FFFFFF;}
	.st97{fill:#89705D;}
	.st98{fill:#6D381A;}
	.st99{fill:#C5B6A6;}
	.st100{fill:#BA6632;}
	.st101{fill:#9A999A;}
	.st102{fill:#CCAC94;}
	.st103{fill:#E1EFF2;}
	.st104{fill:#4D4D63;}
	.st105{fill:#5E5E75;}
	.st106{fill:#4280BA;}
	.st107{fill:#0C1B43;}
	.st108{fill:#1D479B;}
	.st109{fill:#B5D0F5;}
	.st110{fill:#9DC4F0;}
	.st111{fill:#1D55B2;}
	.st112{fill:#3E6CCD;}
	.st113{fill:#F7F7F7;}
	.st114{fill:#F6F5D1;}
	.st115{fill:#EEEFF9;}
	.st116{fill:#F2F0CC;}
	.st117{fill:#F7F5E6;}
	.st118{fill:#214BBB;}
	.st119{fill:#6C6C7D;}
	.st120{fill:#2759AA;}
	.st121{fill:#A38F80;}
	.st122{fill:#958377;}
	.st123{fill:#3773C6;}
	.st124{fill:#221C18;}
	.st125{fill:#A8968C;}
	.st126{fill:#B3A397;}
	.st127{fill:#847566;}
	.st128{fill:#9D8E80;}
	.st129{fill:#594739;}
	.st130{fill:#6B584C;}
	.st131{fill:#519BDE;}
	.st132{fill:#54A6E7;}
	.st133{fill:#8CB6DD;}
	.st134{fill:#DAEDF0;}
	.st135{fill:#32499B;}
	.st136{fill:#E3F3FA;}
	.st137{fill:#90B6F0;}
	.st138{fill:#E3E7F8;}
	.st139{fill:#837769;}
	.st140{fill:#D9E0F7;}
	.st141{fill:#AEB7ED;}
	.st142{fill:#BDC2F1;}
	.st143{fill:#0F62C7;}
	.st144{fill:#004DB1;}
	.st145{fill:#4D59AB;}
	.st146{fill:#113763;}
	.st147{fill:#E2DDF2;}
	.st148{fill:#4788D7;}
	.st149{fill:#3B6BCC;}
	.st150{fill:#A28E76;}
	.st151{fill:#30C1C7;}
	.st152{fill:#008D8C;}
	.st153{fill:#090405;}
	.st154{fill:#645C29;}
	.st155{fill:#D7C09C;}
	.st156{fill:#D2A870;}
	.st157{fill:#D1A678;}
	.st158{fill:#CA925B;}
	.st159{fill:#BABABB;}
	.st160{fill:#8E8E8E;}
	.st161{fill:#D3D3D4;}
	.st162{fill:#CABD9C;}
	.st163{fill:#A4A4A5;}
	.st164{fill:#C8CACB;}
	.st165{fill:#CF5D7F;}
	.st166{fill:#D05456;}
	.st167{fill:#CF889C;}
	.st168{fill:#AF2F39;}
	.st169{fill:#CECFCF;}
	.st170{fill:#D8D39B;}
	.st171{fill:#C9A496;}
	.st172{fill:#CD734D;}
	.st173{fill:#0D091E;}
	.st174{fill:#CAC6C6;}
</style>
<g>
	<g>
		<polygon class="st4" points="54.39,22.34 40.63,22.34 40.92,19.02 54.68,19.02 		"/>
		<path class="st1" d="M30.13,28.21c-0.92,0.44-1.63,0.66-2.13,0.66c-0.79,0-1.37-0.17-1.75-0.49c-0.33-0.3-0.5-0.74-0.5-1.32
			L26,21.73c2.16-2.25,4.54-5.25,7.12-8.99c1.42-2.01,2.13-3.12,2.13-3.34c0-0.22-0.16-0.41-0.5-0.58c-0.37-0.14-0.87-0.21-1.5-0.21
			c-1.79,0-2.47,0.59-2.87,1.48c-1.62,3.59-1.81,4.02-3.19,6.13c0,0-0.45,0.57-1.04,1.28l0.11-1.96c0-2.56-0.58-4.32-1.75-5.28
			c-1.34-1.1-3-1.65-5-1.65c-1.67,0-3.33,0.21-5,0.62c-3,0.88-5.42,2.03-7.25,3.47C4.92,14.34,3,16.32,1.5,18.63
			c-1,1.98-1.5,3.81-1.5,5.49c0,1.51,0.41,2.82,1.25,3.92C1.92,28.95,3,29.67,4.5,30.19c1.17,0.33,2.59,0.55,4.25,0.66
			c1.96,0,3.96-0.39,6-1.16c2.32-0.89,4.08-1.87,6.64-3.94c0.24,1.81,0.86,3.68,2.58,4.59c0.01,0.01,0.02,0.01,0.02,0.02
			c0.03,0.02,0.06,0.03,0.1,0.05c0.06,0.03,0.13,0.07,0.2,0.09c0.61,0.3,1.23,0.4,2.21,0.42c1.13,0.01,2.3-0.18,4.13-1.18
			c1.83-1,3.25-2.41,4.37-4l-1.25-0.49C32.46,26.58,31.25,27.57,30.13,28.21 M10.54,27.43c-1.52,0-2.8-0.34-3.83-1.02
			c-0.85-0.68-1.28-1.68-1.28-3.02c0-1.36,0.48-2.82,1.43-4.38c0.96-1.73,2.18-3.17,3.67-4.31c1.81-1.54,3.33-2.51,4.57-2.91
			c1.24-0.42,2.41-0.63,3.51-0.63c0.13,0,0.27,0.02,0.4,0.04c0.1,0.01,0.21,0.03,0.34,0.06c0.02,0,0.04,0.01,0.06,0.02
			c0.16,0.04,0.33,0.09,0.51,0.17c0.02,0.01,0.03,0.01,0.05,0.02c0.61,0.27,1.26,0.79,1.6,1.76c0.15,0.49,0.23,1.05,0.23,1.72
			l-0.18,2.66c-0.16,1.66-0.37,3.14-0.41,4.71c-0.28,0.25-0.47,0.42-0.47,0.42c-2.16,1.9-4.09,3.18-5.79,3.86
			C13.46,27.15,11.99,27.43,10.54,27.43"/>
	</g>
	<g>
		<path class="st4" d="M85.29,30.85h-7.67l3.54-14.39H70.07l-3.54,14.39h-7.65l6.94-28.19h-2.04l0.61-2.47h9.68l-3.39,13.77h11.09
			l3.39-13.77h7.67L85.29,30.85z"/>
		<path class="st4" d="M110.08,24.12c-0.46,1.86-1.73,3.52-3.8,4.97c-2.27,1.59-4.82,2.38-7.65,2.38c-2.83,0-4.99-0.79-6.48-2.38
			c-1.36-1.46-1.81-3.11-1.35-4.97l2.13-8.64l9.76-4.89c3.45,0,5.88,0.45,7.29,1.35c1.78,1.14,2.33,3.14,1.63,5.98L110.08,24.12z
			 M103.87,24.26l1.56-6.35c0.18-0.73,0.02-1.34-0.47-1.82c-0.5-0.48-1.15-0.72-1.98-0.72c-0.82,0-1.6,0.24-2.33,0.72
			c-0.73,0.48-1.19,1.09-1.37,1.82l-1.56,6.35c-0.18,0.73-0.01,1.34,0.51,1.82c0.48,0.47,1.13,0.7,1.95,0.7
			c0.82,0,1.6-0.24,2.33-0.71C103.24,25.59,103.69,24.99,103.87,24.26z"/>
		<path class="st4" d="M121.62,30.85h-9.29L119.4,2.1h-1.71l0.47-1.91h8.82l-7.08,28.75h2.19L121.62,30.85z"/>
		<path class="st4" d="M144.37,34.62c-0.65,2.65-2.2,4.67-4.63,6.06c-2.16,1.22-4.77,1.83-7.82,1.83l-6.55-2.88l0.58-1.13
			c1.09,0.41,2.54,0.62,4.36,0.62c1.67,0,3.11-0.34,4.33-1.01c1.4-0.78,2.28-1.89,2.63-3.33l1.07-4.32
			c-0.64,0.22-1.61,0.56-2.89,1.03c-3.03,0-5.33-0.61-6.88-1.83c-1.74-1.39-2.29-3.41-1.63-6.06l2.71-11.02h-1.99l0.49-1.99h9.01
			l-3.24,13.16c-0.35,1.44,0,2.55,1.08,3.33c0.94,0.69,2.24,1.03,3.91,1.03l4.32-17.53h7.06L144.37,34.62z"/>
		<path class="st4" d="M211.49,24.12c-0.46,1.86-1.73,3.52-3.8,4.97c-2.27,1.59-4.82,2.38-7.65,2.38c-2.83,0-4.99-0.79-6.48-2.38
			c-1.36-1.46-1.81-3.11-1.35-4.97l2.13-8.64l9.76-4.89c3.45,0,5.88,0.45,7.29,1.35c1.78,1.14,2.33,3.14,1.63,5.98L211.49,24.12z
			 M205.29,24.26l1.56-6.35c0.18-0.73,0.02-1.34-0.47-1.82c-0.5-0.48-1.15-0.72-1.98-0.72c-0.82,0-1.6,0.24-2.33,0.72
			c-0.73,0.48-1.19,1.09-1.37,1.82l-1.56,6.35c-0.18,0.73-0.01,1.34,0.51,1.82c0.48,0.47,1.13,0.7,1.95,0.7
			c0.82,0,1.6-0.24,2.33-0.71C204.65,25.59,205.11,24.99,205.29,24.26z"/>
		<path class="st4" d="M232.65,30.85h-6.15l3.19-12.95c0.18-0.73,0.02-1.33-0.48-1.81c-0.5-0.48-1.17-0.72-1.99-0.72
			s-1.59,0.23-2.29,0.7c-0.76,0.5-1.23,1.11-1.41,1.83l-3.19,12.95h-6.93l4.52-18.35h-1.78l0.47-1.91h6.02l1.37,1.48l2.92-1.48
			c4.1,0,6.82,0.67,8.15,2.01c1.11,1.12,1.37,2.89,0.77,5.32L232.65,30.85z"/>
		<path class="st4" d="M257.9,22.02h-12.28l-0.42,1.69c-0.35,1.44-0.02,2.55,1,3.33c0.9,0.69,2.18,1.03,3.84,1.03
			c1.81,0,3.37-0.21,4.68-0.62l0.03,1.11l-7.97,2.9c-3.06,0-5.36-0.62-6.91-1.85c-1.75-1.38-2.3-3.4-1.65-6.06l2-8.11l9.82-4.86
			c3.37,0,5.76,0.44,7.19,1.33c1.83,1.12,2.41,3.07,1.73,5.84L257.9,22.02z M252.14,20l0.56-2.26c0.17-0.71,0.02-1.29-0.46-1.76
			c-0.48-0.47-1.11-0.7-1.91-0.7c-0.82,0-1.6,0.24-2.32,0.72c-0.73,0.48-1.18,1.08-1.36,1.82L246.11,20H252.14z"/>
	</g>
	<path class="st4" d="M261.21,6.49V1.55h2.43c0.49,0,0.86,0.04,1.12,0.13c0.26,0.09,0.46,0.25,0.61,0.47
		c0.15,0.22,0.23,0.47,0.23,0.74c0,0.35-0.13,0.65-0.38,0.89c-0.25,0.24-0.65,0.39-1.17,0.46c0.19,0.09,0.34,0.17,0.44,0.25
		c0.21,0.17,0.41,0.39,0.6,0.66l0.95,1.34h-0.91l-0.73-1.03c-0.21-0.3-0.39-0.52-0.53-0.68c-0.14-0.16-0.26-0.27-0.37-0.33
		c-0.11-0.06-0.22-0.11-0.33-0.13c-0.08-0.02-0.22-0.03-0.4-0.03h-0.84v2.19H261.21z M261.94,3.73h1.56c0.33,0,0.59-0.03,0.78-0.09
		c0.19-0.06,0.33-0.16,0.43-0.3c0.1-0.14,0.15-0.28,0.15-0.44c0-0.23-0.09-0.43-0.28-0.57c-0.19-0.15-0.49-0.23-0.89-0.23h-1.74
		V3.73z"/>
	<path class="st4" d="M263.18,8.05c-2.22,0-4.02-1.81-4.02-4.02c0-2.22,1.8-4.02,4.02-4.02c2.22,0,4.02,1.81,4.02,4.02
		C267.21,6.24,265.4,8.05,263.18,8.05 M263.18,0.71c-1.83,0-3.32,1.49-3.32,3.32c0,1.83,1.49,3.32,3.32,3.32
		c1.83,0,3.32-1.49,3.32-3.32C266.5,2.19,265.01,0.71,263.18,0.71"/>
	<path class="st4" d="M162.72,16.74h1h5.79c0.5-2.14,0.02-3.73-1.42-4.79c-1.25-0.91-3.12-1.37-5.62-1.37
		c-2.07,0-4.02,0.41-5.85,1.23c-2.2,1-3.51,2.37-3.93,4.09c-0.51,2.07-0.07,3.78,1.32,5.13c0.59,0.59,1.97,1.44,4.14,2.55
		c0.25,0.13,0.47,0.26,0.68,0.39c1.01,0.69,1.46,1.31,1.33,1.85c-0.15,0.6-0.58,1.11-1.31,1.54c-0.66,0.38-1.33,0.57-2.03,0.57
		c-1.46,0-2.01-0.72-1.66-2.16h-2.19h-3.6h-0.91l-0.25,0.99h1h0c-0.15,1.64,0.37,2.91,1.58,3.8c1.25,0.91,3.12,1.37,5.62,1.37
		c2.07,0,4.02-0.41,5.85-1.23c1.71-0.78,2.88-1.79,3.51-3.01c0.44-0.67,0.77-1.42,0.99-2.27c0.36-1.39-0.2-2.67-1.68-3.84
		c-0.4-0.31-1.83-1.17-4.28-2.57c-1.54-0.88-2.23-1.66-2.07-2.32c0.15-0.6,0.58-1.11,1.31-1.54c0.66-0.38,1.33-0.56,2.02-0.56
		c1.07,0,1.65,0.39,1.74,1.17h-0.84L162.72,16.74z"/>
	<path class="st4" d="M189.01,27.44c-1.3,0.43-2.87,0.64-4.69,0.64c-1.66,0-2.94-0.34-3.84-1.03c-1.02-0.78-1.35-1.89-1-3.33
		l2.91-11.81h5.85l0.48-1.95h-5.85l2.41-9.78h-9.17l-0.48,1.95h2.14l-1.93,7.83h-4.27l-0.48,1.95h4.27l-2.87,11.65
		c-0.65,2.66-0.1,4.68,1.65,6.06c1.54,1.23,3.85,1.85,6.91,1.85l7.95-2.9L189.01,27.44z"/>
</g>
</svg>
