<svg version="1.1" id="圖層_1" xmlns="http://www.w3.org/2000/svg" x="0" y="0" viewBox="0 0 699.85 150.8" style="enable-background:new 0 0 699.85 150.8" xml:space="preserve"><style>.st0{fill:#fff}</style><path class="st0" d="M62.6 114.2H0V89.4L51.8 2.8h44V87h16.4v27.2H95.8V148H62.6v-33.8zm0-27.2V65.8c0-9.4.8-23.8 1.2-33.2H63c-3.8 8.4-7.8 16.6-12 25.2L34 87h28.6zM145.6 74.8c0-49.6 21.2-74.8 52.8-74.8C229.8 0 251 25.4 251 74.8c0 49.6-21.2 76-52.6 76-31.6 0-52.8-26.4-52.8-76zm71.8 0c0-39.2-8.4-47.2-19-47.2s-19.2 8-19.2 47.2 8.6 48.4 19.2 48.4 19-9.2 19-48.4zM346.2 114.2h-62.6V89.4l51.8-86.6h44V87h16.4v27.2h-16.4V148h-33.2v-33.8zm0-27.2V65.8c0-9.4.8-23.8 1.2-33.2h-.8c-3.8 8.4-7.8 16.6-12 25.2l-17 29.2h28.6zM434.27 2.09h14.09l14.32 27.63 5.65 12.77h.39c-.7-6.11-1.86-14.4-1.86-21.28V2.09h13.16v57.66h-14.09l-14.24-27.78-5.65-12.62h-.39c.62 6.42 1.78 14.32 1.78 21.28v19.12h-13.16V2.09zM497.57 37.69c0-14.55 10.37-23.06 21.59-23.06 11.14 0 21.51 8.51 21.51 23.06 0 14.63-10.37 23.14-21.51 23.14-11.22 0-21.59-8.51-21.59-23.14zm29.02 0c0-7.28-2.32-11.92-7.43-11.92-5.19 0-7.51 4.64-7.51 11.92 0 7.35 2.32 12 7.51 12 5.11 0 7.43-4.64 7.43-12zM556.38 43.42V26.47h-5.96V16.26l6.81-.54 1.55-11.69h11.38v11.69h10.37v10.76h-10.37v16.79c0 4.88 2.32 6.81 5.57 6.81 1.39 0 2.94-.46 4.02-.85l2.17 9.98c-2.32.7-5.5 1.63-9.98 1.63-11.07-.01-15.56-7.05-15.56-17.42zM434.27 89.96h36.76v11.53h-22.91v12.62h19.66v11.53h-19.66v21.98h-13.85V89.96zM483.48 125.56c0-14.55 10.37-23.06 21.59-23.06 11.15 0 21.52 8.51 21.52 23.06 0 14.63-10.37 23.14-21.52 23.14-11.22 0-21.59-8.51-21.59-23.14zm29.03 0c0-7.28-2.32-11.92-7.43-11.92-5.19 0-7.51 4.64-7.51 11.92 0 7.35 2.32 12 7.51 12 5.1 0 7.43-4.65 7.43-12zM542.53 130.82v-27.24h13.78v25.54c0 6.04 1.63 7.82 5.11 7.82 3.1 0 5.03-1.24 7.35-4.49v-28.87h13.78v44.04h-11.22l-1.01-6.04H570c-3.64 4.33-7.74 7.12-13.7 7.12-9.67 0-13.77-6.89-13.77-17.88zM601.34 103.58h11.22l1.01 5.5h.23c3.64-3.56 8.13-6.58 14.09-6.58 9.6 0 13.7 6.89 13.7 17.88v27.24h-13.78v-25.54c0-6.11-1.63-7.82-5.11-7.82-3.1 0-4.95 1.39-7.59 3.95v29.41h-13.78v-44.04zM657.75 125.56c0-14.4 9.06-23.06 18.19-23.06 4.88 0 7.74 1.78 10.6 4.57l-.46-6.58v-14.7h13.78v61.84h-11.22l-1.01-4.26h-.31c-3.1 3.09-7.35 5.34-11.53 5.34-11-.01-18.04-8.75-18.04-23.15zm28.33 8.13v-17.34c-2.09-1.93-4.57-2.63-6.89-2.63-3.79 0-7.28 3.56-7.28 11.69 0 8.44 2.79 12 7.51 12 2.63-.01 4.72-.86 6.66-3.72z"/></svg>