<svg version="1.1" id="圖層_1" xmlns="http://www.w3.org/2000/svg" x="0" y="0" viewBox="0 0 1779.18 96.21" style="enable-background:new 0 0 1779.18 96.21" xml:space="preserve"><style>.st0{fill:#dfdfdf}.st1{fill:#555}.st2{fill:#4d4d4d}</style><path class="st0" d="M888.68 20.02a4.955 4.955 0 0 0-4.96-4.94l-37.38.08.02 9.89 37.38-.08c2.73 0 4.94-2.22 4.94-4.95zM888.78 72.42a4.955 4.955 0 0 0-4.96-4.94l-37.37.08.02 9.89 37.38-.07a4.946 4.946 0 0 0 4.93-4.96z"/><path class="st1" d="M742.69 38.57 0 39.06l7.87 15.88 734.85-.48z"/><path class="st2" d="M772.05 59.33 772 33.58l27.86-25.75.15 77.14z"/><path transform="translate(-.092 1.663)" class="st1" d="M799.93 7.79h38.41v77.14h-38.41z"/><path transform="translate(-.09 1.665)" class="st1" d="M830.28.02h16.12v92.61h-16.12z"/><path class="st1" d="m742.72 57.64-.04-22.25L772 33.58l.05 25.75z"/><path class="st2" d="m742.69 38.57.03 15.89-9.65.02zM830.28 46.34l.08 38.57-8.18.02z"/><path class="st1" d="m1774.16 41.25-737.7.49.02 15.9 742.7-.51z"/><path class="st2" d="m1007.13 36.88.05 25.75-27.86 25.75-.15-77.14z"/><path transform="translate(-.099 1.94)" class="st1" d="M940.83 11.28h38.41v77.14h-38.41z"/><path class="st2" d="m948.9 49.87-.08-38.57 8.18-.02z"/><path transform="translate(-.1 1.906)" class="st1" d="M932.77 3.58h16.12v92.61h-16.12z"/><path class="st1" d="m1036.45 38.57.05 22.24-29.32 1.82-.05-25.75z"/><path class="st2" d="m1036.49 57.64-.03-15.9 9.65-.01z"/></svg>