<?xml version="1.0" encoding="utf-8"?>
<!-- Generator: Adobe Illustrator 24.3.0, SVG Export Plug-In . SVG Version: 6.00 Build 0)  -->
<svg version="1.1" id="圖層_1" xmlns="http://www.w3.org/2000/svg" xmlns:xlink="http://www.w3.org/1999/xlink" x="0px" y="0px"
	 viewBox="0 0 699.8 150.8" style="enable-background:new 0 0 699.8 150.8;" xml:space="preserve">
<style type="text/css">
	.st0{fill:#FFFFFF;}
</style>
<g>
	<path class="st0" d="M425.8,1.6h16.6l17.9,58.1h-14.5l-3.3-13.3h-17L422,59.8h-14.1L425.8,1.6z M427.9,35.7h11.8l-1.2-4.9
		c-1.5-5.8-3-12.7-4.6-18.6h-0.3c-1.4,6.1-2.9,12.9-4.4,18.6L427.9,35.7z"/>
	<path class="st0" d="M468.9,37.5c0-14.7,10.8-23.2,23.1-23.2c5.3,0,9.5,1.9,12.8,4.8l-6.4,8.8c-2-1.6-3.7-2.3-5.6-2.3
		c-6.1,0-9.9,4.7-9.9,12c0,7.4,4,12.1,9.4,12.1c2.8,0,5.4-1.3,7.7-3.1l5.3,9.1c-4.3,3.8-9.9,5.2-14.5,5.2
		C478.4,60.8,468.9,52.3,468.9,37.5z"/>
	<path class="st0" d="M514,37.5c0-14.7,10.8-23.2,23.1-23.2c5.3,0,9.5,1.9,12.8,4.8l-6.4,8.8c-2-1.6-3.7-2.3-5.6-2.3
		c-6.1,0-9.9,4.7-9.9,12c0,7.4,4,12.1,9.4,12.1c2.8,0,5.4-1.3,7.7-3.1l5.3,9.1c-4.3,3.8-9.9,5.2-14.5,5.2
		C523.5,60.8,514,52.3,514,37.5z"/>
	<path class="st0" d="M559.2,37.5c0-14.3,10.3-23.2,20.9-23.2c12.7,0,18.9,9.3,18.9,21.4c0,2.5-0.3,4.9-0.6,6h-25.8
		c1.2,6.1,5.4,8.6,11,8.6c3.2,0,6.1-0.9,9.3-2.8l4.6,8.3c-4.6,3.3-10.6,5.1-15.7,5.1C569,60.8,559.2,52.3,559.2,37.5z M587.3,32.5
		c0-4.4-1.9-7.6-7-7.6c-3.8,0-7.1,2.4-8,7.6H587.3z"/>
	<path class="st0" d="M610.2,54.6l6.1-8.7c4,3,7.7,4.7,11.1,4.7c3.6,0,5.2-1.3,5.2-3.5c0-2.7-4.3-3.9-8.7-5.7
		c-5.3-2.1-11.2-5.7-11.2-13.1c0-8.3,6.7-14,17-14c6.9,0,12,2.8,15.7,5.7l-6.1,8.3c-3.2-2.3-6.3-3.7-9.1-3.7c-3.2,0-4.6,1.1-4.6,3.2
		c0,2.7,3.8,3.7,8.4,5.3c5.5,2.1,11.6,5.3,11.6,13.3c0,8.2-6.3,14.5-18.3,14.5C621.4,60.8,614.7,58.3,610.2,54.6z"/>
	<path class="st0" d="M655.8,54.6l6.1-8.7c4,3,7.7,4.7,11.1,4.7c3.6,0,5.2-1.3,5.2-3.5c0-2.7-4.3-3.9-8.7-5.7
		c-5.3-2.1-11.2-5.7-11.2-13.1c0-8.3,6.7-14,17-14c6.9,0,12,2.8,15.7,5.7l-6.1,8.3c-3.2-2.3-6.3-3.7-9.1-3.7c-3.2,0-4.6,1.1-4.6,3.2
		c0,2.7,3.8,3.7,8.4,5.3c5.5,2.1,11.6,5.3,11.6,13.3c0,8.2-6.3,14.5-18.3,14.5C667,60.8,660.3,58.3,655.8,54.6z"/>
	<path class="st0" d="M405.8,91.2h16.6c17.6,0,29.2,8.6,29.2,28.8c0,20.2-11.6,29.3-28.4,29.3h-17.3V91.2z M421.5,138.1
		c9.3,0,15.9-4.3,15.9-18.1s-6.6-17.6-15.9-17.6h-1.9v35.7H421.5z"/>
	<path class="st0" d="M464.8,127.1c0-14.3,10.3-23.2,20.9-23.2c12.7,0,18.9,9.3,18.9,21.4c0,2.5-0.3,4.9-0.6,6h-25.8
		c1.2,6.1,5.4,8.6,11,8.6c3.2,0,6.1-0.9,9.3-2.8l4.6,8.3c-4.6,3.3-10.6,5.1-15.7,5.1C474.6,150.4,464.8,141.8,464.8,127.1z
		 M492.9,122.1c0-4.4-1.9-7.6-7-7.6c-3.8,0-7.1,2.4-8,7.6H492.9z"/>
	<path class="st0" d="M519.6,105h11.2l1,5.5h0.2c3.6-3.6,8.1-6.6,14.1-6.6c9.6,0,13.7,6.9,13.7,18v27.5h-13.8v-25.7
		c0-6.2-1.6-7.9-5.1-7.9c-3.1,0-5,1.4-7.6,4v29.6h-13.8V105z"/>
	<path class="st0" d="M575.9,91.6c0-4.3,3-7.1,7.7-7.1c4.6,0,7.7,2.8,7.7,7.1c0,4.4-3.1,7.2-7.7,7.2C578.9,98.8,575.9,96,575.9,91.6
		z M576.7,105h13.8v44.4h-13.8V105z"/>
	<path class="st0" d="M605.2,127.1c0-14.3,10.3-23.2,20.9-23.2c12.7,0,18.9,9.3,18.9,21.4c0,2.5-0.3,4.9-0.6,6h-25.8
		c1.2,6.1,5.4,8.6,11,8.6c3.2,0,6.1-0.9,9.3-2.8l4.6,8.3c-4.6,3.3-10.6,5.1-15.7,5.1C615,150.4,605.2,141.8,605.2,127.1z
		 M633.3,122.1c0-4.4-1.9-7.6-7-7.6c-3.8,0-7.1,2.4-8,7.6H633.3z"/>
	<path class="st0" d="M657.8,127.1c0-14.5,9.1-23.2,18.2-23.2c4.9,0,7.7,1.8,10.6,4.6l-0.5-6.6V87h13.8v62.3h-11.2l-1-4.3h-0.3
		c-3.1,3.1-7.3,5.4-11.5,5.4C664.8,150.4,657.8,141.6,657.8,127.1z M686.1,135.3v-17.5c-2.1-2-4.6-2.7-6.9-2.7
		c-3.8,0-7.3,3.6-7.3,11.8c0,8.5,2.8,12.1,7.5,12.1C682.1,139,684.1,138.2,686.1,135.3z"/>
</g>
<g>
	<path class="st0" d="M62.8,114.3H0V89.4L51.9,2.6h44.1V87h16.4v27.3H96.1v33.9H62.8V114.3z M62.8,87V65.7c0-9.4,0.8-23.9,1.2-33.3
		h-0.8c-3.8,8.4-7.8,16.6-12,25.3L34.1,87H62.8z"/>
	<path class="st0" d="M138,74.7c0-49.7,21.3-75,52.9-75c31.5,0,52.7,25.5,52.7,75c0,49.7-21.3,76.2-52.7,76.2
		C159.2,150.9,138,124.5,138,74.7z M210,74.7c0-39.3-8.4-47.3-19.1-47.3c-10.6,0-19.3,8-19.3,47.3c0,39.3,8.6,48.5,19.3,48.5
		C201.5,123.3,210,114.1,210,74.7z"/>
	<path class="st0" d="M268.7,130.1l16.4-22.5c9,8.4,19.5,14.4,31.1,14.4c13.8,0,22.9-5.6,22.9-16c0-12.2-6.8-19.5-38.1-19.5V61.3
		c25.5,0,33.5-7.6,33.5-18.4c0-9.8-6-15.2-17-15.2c-10,0-17.6,4.6-26.7,12.6l-18-21.9C286.6,7,301.4-0.3,319.1-0.3
		c30.9,0,51.1,14.6,51.1,40.3c0,14.6-8.2,25.5-23.9,32.1v1C362.8,78,375,89.8,375,108.4c0,27.3-25.5,42.5-55.1,42.5
		C296.2,150.9,279.5,142.7,268.7,130.1z"/>
</g>
</svg>
