<?xml version="1.0" encoding="utf-8"?>
<!-- Generator: Adobe Illustrator 24.3.0, SVG Export Plug-In . SVG Version: 6.00 Build 0)  -->
<svg version="1.1" id="圖層_1" xmlns="http://www.w3.org/2000/svg" xmlns:xlink="http://www.w3.org/1999/xlink" x="0px" y="0px"
	 viewBox="0 0 1779.18 96.21" style="enable-background:new 0 0 1779.18 96.21;" xml:space="preserve">
<style type="text/css">
	.st0{fill:#DFDFDF;}
	.st1{fill:#555555;}
	.st2{fill:#4D4D4D;}
</style>
<g>
	<g>
		<g>
			<g>
				<path class="st0" d="M888.68,20.02c-0.01-2.73-2.22-4.94-4.96-4.94l-37.38,0.08l0.02,9.89l37.38-0.08
					C886.47,24.97,888.68,22.75,888.68,20.02z"/>
				<path class="st0" d="M888.78,72.42c-0.01-2.73-2.22-4.94-4.96-4.94l-37.37,0.08l0.02,9.89l37.38-0.07
					C886.58,77.37,888.79,75.15,888.78,72.42z"/>
			</g>
			<g>
				<g>
					<polygon class="st1" points="742.69,38.57 0,39.06 7.87,54.94 742.72,54.46 					"/>
				</g>
				<polygon class="st2" points="772.05,59.33 772,33.58 799.86,7.83 800.01,84.97 				"/>
				
					<rect x="799.93" y="7.79" transform="matrix(1 -2.030110e-03 2.030110e-03 1 -0.0924 1.663)" class="st1" width="38.41" height="77.14"/>
				
					<rect x="830.28" y="0.02" transform="matrix(1 -1.986355e-03 1.986355e-03 1 -0.0904 1.6653)" class="st1" width="16.12" height="92.61"/>
				<polygon class="st1" points="742.72,57.64 742.68,35.39 772,33.58 772.05,59.33 				"/>
				<polygon class="st2" points="742.69,38.57 742.72,54.46 733.07,54.48 				"/>
				<polygon class="st2" points="830.28,46.34 830.36,84.91 822.18,84.93 				"/>
			</g>
		</g>
	</g>
	<g>
		<g>
			<g>
				<g>
					<polygon class="st1" points="1774.16,41.25 1036.46,41.74 1036.48,57.64 1779.18,57.13 					"/>
				</g>
				<polygon class="st2" points="1007.13,36.88 1007.18,62.63 979.32,88.38 979.17,11.24 				"/>
				
					<rect x="940.83" y="11.28" transform="matrix(1 -2.021621e-03 2.021621e-03 1 -0.0988 1.9409)" class="st1" width="38.41" height="77.14"/>
				<polygon class="st2" points="948.9,49.87 948.82,11.3 957,11.28 				"/>
				
					<rect x="932.77" y="3.58" transform="matrix(1 -2.025703e-03 2.025703e-03 1 -0.0991 1.906)" class="st1" width="16.12" height="92.61"/>
				<polygon class="st1" points="1036.45,38.57 1036.5,60.81 1007.18,62.63 1007.13,36.88 				"/>
			</g>
		</g>
		<polygon class="st2" points="1036.49,57.64 1036.46,41.74 1046.11,41.73 		"/>
	</g>
</g>
</svg>
