<?xml version="1.0" encoding="utf-8"?>
<!-- Generator: Adobe Illustrator 24.3.0, SVG Export Plug-In . SVG Version: 6.00 Build 0)  -->
<svg version="1.1" id="圖層_1" xmlns="http://www.w3.org/2000/svg" xmlns:xlink="http://www.w3.org/1999/xlink" x="0px" y="0px"
	 viewBox="0 0 699.85 150.8" style="enable-background:new 0 0 699.85 150.8;" xml:space="preserve">
<style type="text/css">
	.st0{fill:#FFFFFF;}
</style>
<path class="st0" d="M62.6,114.2H0V89.4L51.8,2.8h44V87h16.4v27.2H95.8V148H62.6V114.2z M62.6,87V65.8c0-9.4,0.8-23.8,1.2-33.2H63
	c-3.8,8.4-7.8,16.6-12,25.2L34,87H62.6z"/>
<path class="st0" d="M145.6,74.8c0-49.6,21.2-74.8,52.8-74.8C229.8,0,251,25.4,251,74.8c0,49.6-21.2,76-52.6,76
	C166.8,150.8,145.6,124.4,145.6,74.8z M217.4,74.8c0-39.2-8.4-47.2-19-47.2s-19.2,8-19.2,47.2s8.6,48.4,19.2,48.4
	S217.4,114,217.4,74.8z"/>
<path class="st0" d="M346.2,114.2h-62.6V89.4l51.8-86.6h44V87h16.4v27.2h-16.4V148h-33.2V114.2z M346.2,87V65.8
	c0-9.4,0.8-23.8,1.2-33.2h-0.8c-3.8,8.4-7.8,16.6-12,25.2l-17,29.2H346.2z"/>
<path class="st0" d="M434.27,2.09h14.09l14.32,27.63l5.65,12.77h0.39c-0.7-6.11-1.86-14.4-1.86-21.28V2.09h13.16v57.66h-14.09
	l-14.24-27.78l-5.65-12.62h-0.39c0.62,6.42,1.78,14.32,1.78,21.28v19.12h-13.16V2.09z"/>
<path class="st0" d="M497.57,37.69c0-14.55,10.37-23.06,21.59-23.06c11.14,0,21.51,8.51,21.51,23.06
	c0,14.63-10.37,23.14-21.51,23.14C507.94,60.83,497.57,52.32,497.57,37.69z M526.59,37.69c0-7.28-2.32-11.92-7.43-11.92
	c-5.19,0-7.51,4.64-7.51,11.92c0,7.35,2.32,12,7.51,12C524.27,49.69,526.59,45.05,526.59,37.69z"/>
<path class="st0" d="M556.38,43.42V26.47h-5.96V16.26l6.81-0.54l1.55-11.69h11.38v11.69h10.37v10.76h-10.37v16.79
	c0,4.88,2.32,6.81,5.57,6.81c1.39,0,2.94-0.46,4.02-0.85l2.17,9.98c-2.32,0.7-5.5,1.63-9.98,1.63
	C560.87,60.83,556.38,53.79,556.38,43.42z"/>
<path class="st0" d="M434.27,89.96h36.76v11.53h-22.91v12.62h19.66v11.53h-19.66v21.98h-13.85V89.96z"/>
<path class="st0" d="M483.48,125.56c0-14.55,10.37-23.06,21.59-23.06c11.15,0,21.52,8.51,21.52,23.06
	c0,14.63-10.37,23.14-21.52,23.14C493.85,148.7,483.48,140.19,483.48,125.56z M512.51,125.56c0-7.28-2.32-11.92-7.43-11.92
	c-5.19,0-7.51,4.64-7.51,11.92c0,7.35,2.32,12,7.51,12C510.18,137.56,512.51,132.91,512.51,125.56z"/>
<path class="st0" d="M542.53,130.82v-27.24h13.78v25.54c0,6.04,1.63,7.82,5.11,7.82c3.1,0,5.03-1.24,7.35-4.49v-28.87h13.78v44.04
	h-11.22l-1.01-6.04H570c-3.64,4.33-7.74,7.12-13.7,7.12C546.63,148.7,542.53,141.81,542.53,130.82z"/>
<path class="st0" d="M601.34,103.58h11.22l1.01,5.5h0.23c3.64-3.56,8.13-6.58,14.09-6.58c9.6,0,13.7,6.89,13.7,17.88v27.24h-13.78
	v-25.54c0-6.11-1.63-7.82-5.11-7.82c-3.1,0-4.95,1.39-7.59,3.95v29.41h-13.78V103.58z"/>
<path class="st0" d="M657.75,125.56c0-14.4,9.06-23.06,18.19-23.06c4.88,0,7.74,1.78,10.6,4.57l-0.46-6.58v-14.7h13.78v61.84h-11.22
	l-1.01-4.26h-0.31c-3.1,3.09-7.35,5.34-11.53,5.34C664.79,148.7,657.75,139.96,657.75,125.56z M686.08,133.69v-17.34
	c-2.09-1.93-4.57-2.63-6.89-2.63c-3.79,0-7.28,3.56-7.28,11.69c0,8.44,2.79,12,7.51,12C682.05,137.4,684.14,136.55,686.08,133.69z"
	/>
</svg>
