<svg version="1.1" id="圖層_1" xmlns="http://www.w3.org/2000/svg" x="0" y="0" viewBox="0 0 122.9 94.15" style="enable-background:new 0 0 122.9 94.15" xml:space="preserve"><style>.st0{fill:#fff}</style><path class="st0" d="M15.93 15.41H63.9s-9.91 9.08-10.5 10.55c-.58 1.47-.93 1.82-.35 2.29.58.48 3.23.58 7.22-2.57 3.94-3.14 6.6-6.05 8.19-7.23.02-.01.04-.03.06-.04 1.58-1.14 3.53-1.14 4.69-1.52.02 0 .03 0 .05-.01.77-.22 1.57-.89 1.79-1.09.04-.03.31-.31.31-.31h.11l13.63.01S74.05 29.37 68.24 35.23c-5.81 5.87-13.08 14.2-19.88 15.84-6.8 1.63-15.48 2.45-19 3.69C25.84 56 15.93 60.8 15.93 60.8V49.73s3.87-2.99 10-6.2c3-1.56 8.81-2.43 8.81-2.43l.29-.05c7.48.48 8.19-1.29 7.65-2.78-.01-.03-.02-.05-.02-.07-1-2.35-7.7-1.14-12.83.19-1.71.43-3.54.5-4.66.85-4.65 1.46-9.29 2.56-9.29 2.56l.05-26.39z"/><path class="st0" d="M31.09 61.78h29.08s1.42-.85 3.95-2.59c2.53-1.74 2.27-1.84 4.32-3 2.05-1.16 4.11-.21 4.48.16.37.36.42 1.8-.26 2.78-.69 1.01-2.24 2.69-2.24 2.69l31.06.01V39.48s-3.05.11-9.48 3.85c-6.43 3.75-7.46 5.01-10.08 5.48-2.63.48-2.2.21-2.2.21s-.1-1.79.95-2.69c1.06-.9 8.96-5.47 10.75-7.06 1.79-1.58 4.48-1.73 6.58-2.95 2.11-1.21 3.53-2.52 3.53-2.52V17.47s-9.07 2.82-15.07 7.79c-6 4.97-11.13 9.91-14.13 13.76-3 3.85-12.32 11.91-16.54 14.22-4.22 2.32-15.6 5.22-19.12 5.9-3.53.69-5.58 2.64-5.58 2.64zM63.9 15.41h11.75s.53-.79 3.95-2.95 5.01-7.33 3.64-7.23c-1.37.12-7.11 1.28-10.64 3.17-3.53 1.9-8.7 7.01-8.7 7.01zM89.41 15.47h12.12v2s3.74-.38 6.95-1.69c3.22-1.31 4.53-3.38 5.06-4.79.53-1.43.68-3.48-.11-3.85-.79-.38-3.37 1.11-8.58 2.27-5.22 1.16-5.75.68-9.49 2.42l-5.95 3.64zM101.54 33.8v5.68s5.76.42 8.23-1.65c2.46-2.07 3.04-5.9 2.81-6.07-.21-.18-.44-.79-3.69-.09-3.26.7-1.72.7-3.61 1.41s-3.74.72-3.74.72z"/><path class="st0" d="m60.17 61.78 10.25.04s-2.59 3.83-6.86 6.59c-4.27 2.77-5.37 2.47-9.42 3.87-4.05 1.41-4.48 2.07-7.12 2.64-2.64.57-6.03-.65-6.2-2.64-.18-1.97.84-3.74 3.08-4.75 2.24-1.01 4-1.4 7.99-2.51 4.65-1.93 8.28-3.24 8.28-3.24zM15.93 60.8v.97h15.13s-4.66 2.68-7.83 4.09c-3.17 1.4-2.11.48-3.56 1.7-1.45 1.24-3.21 2.6-5.37 2.69-2.15.09-4.79-.49-4.75-3.03.05-2.55.62-3.12 2.11-4.27 1.5-1.14 4.27-2.15 4.27-2.15zM15.75 41.83c.08-.02.13-.03.13-.03l.03 7.77s-2.05 1.14-3.68 1.31c-1.62.17-4.53-1.18-4.97-1.58-.44-.4-1.84-.92-.18-2.6 1.67-1.67 2.61-2.38 4.21-3.31 1.4-.8 3.86-1.42 4.46-1.56z"/><path style="fill:none;stroke:#fff;stroke-width:1.6093" d="M2.3 2.49h118.08v89.83H2.3z"/><path class="st0" d="M8.23 87.3v-9.94h1.38v8.78h5.15v1.17H8.23zM16.65 87.3v-9.94h1.39v9.94h-1.39zM23.47 87.3l-4.05-9.94h1.5l2.72 7.23c.22.58.4 1.13.55 1.63.16-.54.34-1.09.56-1.63l2.83-7.23H29l-4.1 9.94h-1.43zM30.47 87.3v-9.94h1.38v9.94h-1.38zM34.28 87.3v-9.94h1.42l5.5 7.81v-7.81h1.33v9.94h-1.42l-5.49-7.82v7.82h-1.34zM49.75 83.4v-1.16h4.44v3.68c-.68.52-1.38.91-2.11 1.16-.72.26-1.46.4-2.23.4-1.03 0-1.96-.21-2.8-.64a4.218 4.218 0 0 1-1.9-1.81c-.43-.79-.64-1.67-.64-2.65 0-.97.21-1.88.64-2.72.43-.84 1.04-1.46 1.84-1.87.8-.41 1.72-.62 2.77-.62.75 0 1.44.12 2.05.36.61.23 1.09.55 1.44.97.35.42.61.96.8 1.62l-1.25.33c-.15-.51-.36-.91-.58-1.2-.23-.29-.57-.52-1-.69a3.71 3.71 0 0 0-1.45-.27c-.63 0-1.18.09-1.64.28-.46.19-.84.43-1.12.73-.29.3-.51.64-.66.99-.27.62-.4 1.28-.4 2 0 .89.16 1.63.48 2.23.31.6.78 1.04 1.4 1.33.62.28 1.27.43 1.96.43.6 0 1.19-.11 1.76-.33.57-.23 1-.47 1.29-.7V83.4h-3.09zM59.83 84.12l1.3-.12c.06.5.21.91.44 1.23.22.33.57.58 1.05.78.48.19 1.01.3 1.61.3.52 0 .99-.08 1.4-.23.4-.15.7-.36.9-.61.2-.27.3-.55.3-.85 0-.31-.09-.58-.29-.82-.19-.24-.51-.43-.94-.58-.28-.11-.9-.27-1.87-.5-.96-.21-1.63-.43-2.02-.62-.5-.25-.87-.56-1.12-.92-.25-.37-.37-.79-.37-1.25 0-.48.15-.97.45-1.4.3-.44.74-.77 1.32-.99.57-.23 1.21-.35 1.92-.35.78 0 1.46.12 2.05.36.6.24 1.05.59 1.37 1.04.32.47.49.99.51 1.57l-1.33.09c-.08-.63-.31-1.1-.73-1.43-.41-.31-1.02-.48-1.83-.48-.84 0-1.45.15-1.83.44-.39.29-.57.65-.57 1.04 0 .36.13.67.41.89.26.24.97.47 2.09.71 1.12.24 1.89.47 2.31.63.61.28 1.06.62 1.35 1.03.29.4.43.88.43 1.41 0 .54-.16 1.04-.48 1.51-.32.46-.77.83-1.37 1.08-.6.26-1.27.4-2.02.4-.95 0-1.74-.13-2.38-.4-.64-.26-1.14-.66-1.51-1.18-.34-.53-.54-1.13-.55-1.78zM70.05 87.3v-9.94H74c.7 0 1.23.03 1.59.09.52.08.94.23 1.29.46.34.24.63.55.84.97.21.42.32.87.32 1.36 0 .85-.28 1.56-.85 2.15-.57.58-1.59.88-3.08.88h-2.68v4.04h-1.38zm1.38-5.21h2.71c.9 0 1.53-.16 1.91-.47.38-.31.56-.77.56-1.35 0-.41-.11-.77-.33-1.07-.22-.29-.51-.49-.87-.59-.23-.06-.66-.09-1.29-.09h-2.68v3.57zM79.83 87.3v-9.94h4.64c.93 0 1.64.09 2.12.26.49.18.87.5 1.17.94.29.47.43.96.43 1.52 0 .7-.24 1.29-.72 1.78-.48.48-1.22.79-2.23.92.36.16.65.33.84.49.4.36.79.8 1.14 1.33l1.83 2.7h-1.74l-1.38-2.06c-.41-.6-.74-1.06-1-1.37-.26-.32-.49-.54-.7-.66-.21-.13-.42-.22-.63-.27a4.55 4.55 0 0 0-.77-.05h-1.61v4.41h-1.39zm1.38-5.55h2.98c.64 0 1.13-.06 1.49-.19.36-.12.63-.32.81-.6.19-.26.28-.57.28-.89 0-.47-.18-.86-.54-1.16-.35-.31-.93-.46-1.7-.46h-3.32v3.3zM90.6 87.3v-9.94h1.38v9.94H90.6zM94.41 87.3v-9.94h1.42l5.5 7.81v-7.81h1.33v9.94h-1.42l-5.5-7.82v7.82h-1.33zM109.88 83.4v-1.16h4.44v3.68c-.68.52-1.38.91-2.11 1.16-.73.26-1.46.4-2.23.4-1.03 0-1.97-.21-2.8-.64-.84-.41-1.48-1.02-1.9-1.81-.43-.79-.64-1.67-.64-2.65 0-.97.21-1.88.64-2.72.42-.84 1.04-1.46 1.84-1.87.8-.41 1.72-.62 2.76-.62.76 0 1.44.12 2.06.36.61.23 1.09.55 1.44.97.35.42.61.96.79 1.62l-1.25.33c-.16-.51-.36-.91-.59-1.2-.24-.29-.57-.52-1-.69-.43-.18-.91-.27-1.44-.27-.63 0-1.18.09-1.64.28-.46.19-.84.43-1.12.73-.28.3-.5.64-.66.99-.27.62-.4 1.28-.4 2 0 .89.16 1.63.49 2.23.32.6.79 1.04 1.4 1.33.61.28 1.26.43 1.95.43.6 0 1.19-.11 1.76-.33.57-.23 1.01-.47 1.3-.7V83.4h-3.09z"/></svg>