<?xml version="1.0" encoding="utf-8"?>
<!-- Generator: Adobe Illustrator 24.3.0, SVG Export Plug-In . SVG Version: 6.00 Build 0)  -->
<svg version="1.1" id="圖層_1" xmlns="http://www.w3.org/2000/svg" xmlns:xlink="http://www.w3.org/1999/xlink" x="0px" y="0px"
	 viewBox="0 0 122.9 94.15" style="enable-background:new 0 0 122.9 94.15;" xml:space="preserve">
<style type="text/css">
	.st0{fill:#FFFFFF;}
	.st1{fill:none;stroke:#FFFFFF;stroke-width:1.6093;}
</style>
<g>
	<path class="st0" d="M15.93,15.41H63.9c0,0-9.91,9.08-10.5,10.55c-0.58,1.47-0.93,1.82-0.35,2.29c0.58,0.48,3.23,0.58,7.22-2.57
		c3.94-3.14,6.6-6.05,8.19-7.23c0.02-0.01,0.04-0.03,0.06-0.04c1.58-1.14,3.53-1.14,4.69-1.52c0.02,0,0.03,0,0.05-0.01
		c0.77-0.22,1.57-0.89,1.79-1.09c0.04-0.03,0.31-0.31,0.31-0.31s0.04,0,0.11,0c1.26,0,13.63,0.01,13.63,0.01
		S74.05,29.37,68.24,35.23c-5.81,5.87-13.08,14.2-19.88,15.84c-6.8,1.63-15.48,2.45-19,3.69C25.84,56,15.93,60.8,15.93,60.8V49.73
		c0,0,3.87-2.99,10-6.2c3-1.56,8.81-2.43,8.81-2.43s0,0,0.29-0.05c7.48,0.48,8.19-1.29,7.65-2.78c-0.01-0.03-0.02-0.05-0.02-0.07
		c-1-2.35-7.7-1.14-12.83,0.19c-1.71,0.43-3.54,0.5-4.66,0.85c-4.65,1.46-9.29,2.56-9.29,2.56L15.93,15.41z"/>
	<path class="st0" d="M31.09,61.78h29.08c0,0,1.42-0.85,3.95-2.59c2.53-1.74,2.27-1.84,4.32-3c2.05-1.16,4.11-0.21,4.48,0.16
		c0.37,0.36,0.42,1.8-0.26,2.78c-0.69,1.01-2.24,2.69-2.24,2.69l31.06,0.01V39.48c0,0-3.05,0.11-9.48,3.85
		c-6.43,3.75-7.46,5.01-10.08,5.48c-2.63,0.48-2.2,0.21-2.2,0.21s-0.1-1.79,0.95-2.69c1.06-0.9,8.96-5.47,10.75-7.06
		c1.79-1.58,4.48-1.73,6.58-2.95c2.11-1.21,3.53-2.52,3.53-2.52V17.47c0,0-9.07,2.82-15.07,7.79c-6,4.97-11.13,9.91-14.13,13.76
		c-3,3.85-12.32,11.91-16.54,14.22c-4.22,2.32-15.6,5.22-19.12,5.9C33.14,59.83,31.09,61.78,31.09,61.78z"/>
	<path class="st0" d="M63.9,15.41h11.75c0,0,0.53-0.79,3.95-2.95c3.42-2.16,5.01-7.33,3.64-7.23C81.87,5.35,76.13,6.51,72.6,8.4
		C69.07,10.3,63.9,15.41,63.9,15.41z"/>
	<path class="st0" d="M89.41,15.47h12.12v2c0,0,3.74-0.38,6.95-1.69c3.22-1.31,4.53-3.38,5.06-4.79c0.53-1.43,0.68-3.48-0.11-3.85
		c-0.79-0.38-3.37,1.11-8.58,2.27c-5.22,1.16-5.75,0.68-9.49,2.42L89.41,15.47z"/>
	<path class="st0" d="M101.54,33.8v5.68c0,0,5.76,0.42,8.23-1.65c2.46-2.07,3.04-5.9,2.81-6.07c-0.21-0.18-0.44-0.79-3.69-0.09
		c-3.26,0.7-1.72,0.7-3.61,1.41C103.39,33.79,101.54,33.8,101.54,33.8z"/>
	<path class="st0" d="M60.17,61.78l10.25,0.04c0,0-2.59,3.83-6.86,6.59c-4.27,2.77-5.37,2.47-9.42,3.87
		c-4.05,1.41-4.48,2.07-7.12,2.64c-2.64,0.57-6.03-0.65-6.2-2.64c-0.18-1.97,0.84-3.74,3.08-4.75c2.24-1.01,4-1.4,7.99-2.51
		C56.54,63.09,60.17,61.78,60.17,61.78z"/>
	<path class="st0" d="M15.93,60.8v0.97h15.13c0,0-4.66,2.68-7.83,4.09c-3.17,1.4-2.11,0.48-3.56,1.7c-1.45,1.24-3.21,2.6-5.37,2.69
		c-2.15,0.09-4.79-0.49-4.75-3.03c0.05-2.55,0.62-3.12,2.11-4.27C13.16,61.81,15.93,60.8,15.93,60.8z"/>
	<path class="st0" d="M15.75,41.83c0.08-0.02,0.13-0.03,0.13-0.03l0.03,7.77c0,0-2.05,1.14-3.68,1.31
		c-1.62,0.17-4.53-1.18-4.97-1.58c-0.44-0.4-1.84-0.92-0.18-2.6c1.67-1.67,2.61-2.38,4.21-3.31C12.69,42.59,15.15,41.97,15.75,41.83
		z"/>
	<rect x="2.3" y="2.49" class="st1" width="118.08" height="89.83"/>
	<g>
		<path class="st0" d="M8.23,87.3v-9.94h1.38v8.78h5.15v1.17H8.23z"/>
		<path class="st0" d="M16.65,87.3v-9.94h1.39v9.94H16.65z"/>
		<path class="st0" d="M23.47,87.3l-4.05-9.94h1.5l2.72,7.23c0.22,0.58,0.4,1.13,0.55,1.63c0.16-0.54,0.34-1.09,0.56-1.63l2.83-7.23
			h1.42l-4.1,9.94H23.47z"/>
		<path class="st0" d="M30.47,87.3v-9.94h1.38v9.94H30.47z"/>
		<path class="st0" d="M34.28,87.3v-9.94h1.42l5.5,7.81v-7.81h1.33v9.94h-1.42l-5.49-7.82v7.82H34.28z"/>
		<path class="st0" d="M49.75,83.4v-1.16h4.44v3.68c-0.68,0.52-1.38,0.91-2.11,1.16c-0.72,0.26-1.46,0.4-2.23,0.4
			c-1.03,0-1.96-0.21-2.8-0.64c-0.84-0.41-1.47-1.02-1.9-1.81c-0.43-0.79-0.64-1.67-0.64-2.65c0-0.97,0.21-1.88,0.64-2.72
			c0.43-0.84,1.04-1.46,1.84-1.87c0.8-0.41,1.72-0.62,2.77-0.62c0.75,0,1.44,0.12,2.05,0.36c0.61,0.23,1.09,0.55,1.44,0.97
			c0.35,0.42,0.61,0.96,0.8,1.62l-1.25,0.33c-0.15-0.51-0.36-0.91-0.58-1.2c-0.23-0.29-0.57-0.52-1-0.69
			c-0.43-0.18-0.91-0.27-1.45-0.27c-0.63,0-1.18,0.09-1.64,0.28c-0.46,0.19-0.84,0.43-1.12,0.73c-0.29,0.3-0.51,0.64-0.66,0.99
			c-0.27,0.62-0.4,1.28-0.4,2c0,0.89,0.16,1.63,0.48,2.23c0.31,0.6,0.78,1.04,1.4,1.33c0.62,0.28,1.27,0.43,1.96,0.43
			c0.6,0,1.19-0.11,1.76-0.33c0.57-0.23,1-0.47,1.29-0.7V83.4H49.75z"/>
		<path class="st0" d="M59.83,84.12l1.3-0.12c0.06,0.5,0.21,0.91,0.44,1.23c0.22,0.33,0.57,0.58,1.05,0.78
			c0.48,0.19,1.01,0.3,1.61,0.3c0.52,0,0.99-0.08,1.4-0.23c0.4-0.15,0.7-0.36,0.9-0.61c0.2-0.27,0.3-0.55,0.3-0.85
			c0-0.31-0.09-0.58-0.29-0.82c-0.19-0.24-0.51-0.43-0.94-0.58c-0.28-0.11-0.9-0.27-1.87-0.5c-0.96-0.21-1.63-0.43-2.02-0.62
			c-0.5-0.25-0.87-0.56-1.12-0.92c-0.25-0.37-0.37-0.79-0.37-1.25c0-0.48,0.15-0.97,0.45-1.4c0.3-0.44,0.74-0.77,1.32-0.99
			c0.57-0.23,1.21-0.35,1.92-0.35c0.78,0,1.46,0.12,2.05,0.36c0.6,0.24,1.05,0.59,1.37,1.04c0.32,0.47,0.49,0.99,0.51,1.57
			l-1.33,0.09c-0.08-0.63-0.31-1.1-0.73-1.43c-0.41-0.31-1.02-0.48-1.83-0.48c-0.84,0-1.45,0.15-1.83,0.44
			c-0.39,0.29-0.57,0.65-0.57,1.04c0,0.36,0.13,0.67,0.41,0.89c0.26,0.24,0.97,0.47,2.09,0.71c1.12,0.24,1.89,0.47,2.31,0.63
			c0.61,0.28,1.06,0.62,1.35,1.03c0.29,0.4,0.43,0.88,0.43,1.41c0,0.54-0.16,1.04-0.48,1.51c-0.32,0.46-0.77,0.83-1.37,1.08
			c-0.6,0.26-1.27,0.4-2.02,0.4c-0.95,0-1.74-0.13-2.38-0.4c-0.64-0.26-1.14-0.66-1.51-1.18C60.04,85.37,59.84,84.77,59.83,84.12z"
			/>
		<path class="st0" d="M70.05,87.3v-9.94H74c0.7,0,1.23,0.03,1.59,0.09c0.52,0.08,0.94,0.23,1.29,0.46
			c0.34,0.24,0.63,0.55,0.84,0.97c0.21,0.42,0.32,0.87,0.32,1.36c0,0.85-0.28,1.56-0.85,2.15c-0.57,0.58-1.59,0.88-3.08,0.88h-2.68
			v4.04H70.05z M71.43,82.09h2.71c0.9,0,1.53-0.16,1.91-0.47c0.38-0.31,0.56-0.77,0.56-1.35c0-0.41-0.11-0.77-0.33-1.07
			c-0.22-0.29-0.51-0.49-0.87-0.59c-0.23-0.06-0.66-0.09-1.29-0.09h-2.68V82.09z"/>
		<path class="st0" d="M79.83,87.3v-9.94h4.64c0.93,0,1.64,0.09,2.12,0.26c0.49,0.18,0.87,0.5,1.17,0.94
			c0.29,0.47,0.43,0.96,0.43,1.52c0,0.7-0.24,1.29-0.72,1.78c-0.48,0.48-1.22,0.79-2.23,0.92c0.36,0.16,0.65,0.33,0.84,0.49
			c0.4,0.36,0.79,0.8,1.14,1.33l1.83,2.7h-1.74l-1.38-2.06c-0.41-0.6-0.74-1.06-1-1.37c-0.26-0.32-0.49-0.54-0.7-0.66
			c-0.21-0.13-0.42-0.22-0.63-0.27c-0.16-0.03-0.42-0.05-0.77-0.05h-1.61v4.41H79.83z M81.21,81.75h2.98c0.64,0,1.13-0.06,1.49-0.19
			c0.36-0.12,0.63-0.32,0.81-0.6c0.19-0.26,0.28-0.57,0.28-0.89c0-0.47-0.18-0.86-0.54-1.16c-0.35-0.31-0.93-0.46-1.7-0.46h-3.32
			V81.75z"/>
		<path class="st0" d="M90.6,87.3v-9.94h1.38v9.94H90.6z"/>
		<path class="st0" d="M94.41,87.3v-9.94h1.42l5.5,7.81v-7.81h1.33v9.94h-1.42l-5.5-7.82v7.82H94.41z"/>
		<path class="st0" d="M109.88,83.4v-1.16h4.44v3.68c-0.68,0.52-1.38,0.91-2.11,1.16c-0.73,0.26-1.46,0.4-2.23,0.4
			c-1.03,0-1.97-0.21-2.8-0.64c-0.84-0.41-1.48-1.02-1.9-1.81c-0.43-0.79-0.64-1.67-0.64-2.65c0-0.97,0.21-1.88,0.64-2.72
			c0.42-0.84,1.04-1.46,1.84-1.87c0.8-0.41,1.72-0.62,2.76-0.62c0.76,0,1.44,0.12,2.06,0.36c0.61,0.23,1.09,0.55,1.44,0.97
			c0.35,0.42,0.61,0.96,0.79,1.62l-1.25,0.33c-0.16-0.51-0.36-0.91-0.59-1.2c-0.24-0.29-0.57-0.52-1-0.69
			c-0.43-0.18-0.91-0.27-1.44-0.27c-0.63,0-1.18,0.09-1.64,0.28c-0.46,0.19-0.84,0.43-1.12,0.73c-0.28,0.3-0.5,0.64-0.66,0.99
			c-0.27,0.62-0.4,1.28-0.4,2c0,0.89,0.16,1.63,0.49,2.23c0.32,0.6,0.79,1.04,1.4,1.33c0.61,0.28,1.26,0.43,1.95,0.43
			c0.6,0,1.19-0.11,1.76-0.33c0.57-0.23,1.01-0.47,1.3-0.7V83.4H109.88z"/>
	</g>
</g>
</svg>
